<svg width="720" height="720" viewBox="0 0 720 720" fill="none" xmlns="http://www.w3.org/2000/svg">
<path d="M612.021 397.901H28.9797C24.2769 397.896 19.7682 396.018 16.4427 392.68C13.1173 389.342 11.2468 384.816 11.2415 380.095V50.0748H629.759V380.095C629.754 384.816 627.883 389.342 624.558 392.68C621.232 396.018 616.724 397.896 612.021 397.901Z" fill="#E6E6E6"/>
<path d="M611.12 374H30.8804C28.2608 373.997 25.7495 372.959 23.8972 371.115C22.0449 369.27 21.0029 366.768 21 364.16V83.8405C21.0029 81.2315 22.0449 78.7303 23.8972 76.8855C25.7495 75.0406 28.2608 74.0029 30.8804 74H611.12C613.739 74.0029 616.251 75.0406 618.103 76.8854C619.955 78.7302 620.997 81.2315 621 83.8405V364.16C620.997 366.768 619.955 369.27 618.103 371.115C616.251 372.959 613.739 373.997 611.12 374Z" fill="white"/>
<path d="M611.12 374H30.8804C28.2608 373.997 25.7495 372.959 23.8972 371.115C22.0449 369.27 21.0029 366.768 21 364.16V83.8405C21.0029 81.2315 22.0449 78.7303 23.8972 76.8855C25.7495 75.0406 28.2608 74.0029 30.8804 74H611.12C613.739 74.0029 616.251 75.0406 618.103 76.8854C619.955 78.7302 620.997 81.2315 621 83.8405V364.16C620.997 366.768 619.955 369.27 618.103 371.115C616.251 372.959 613.739 373.997 611.12 374Z" fill="white"/>
<rect x="221" y="154" width="200" height="70" rx="6" fill="#FFA216"/>
<path d="M244.543 194.36H248.525V192.512H244.543V191.654H248.437V184.856H244.543V183.998H248.767V185.714H250.769C250.615 189.652 250.087 192.798 248.371 195.174C247.095 195.284 245.797 195.394 244.543 195.482V194.36ZM240.451 190.026V189.036H242.167V190.026H240.451ZM246.259 189.036V190.026H244.543V189.036H246.259ZM244.543 187.474V186.506H246.259V187.474H244.543ZM240.451 186.506H242.167V187.474H240.451V186.506ZM253.321 183.316C253.365 181.864 253.365 180.324 253.365 178.718H250.857C250.857 180.346 250.857 181.864 250.835 183.316H248.767V182.106H244.543V181.028C245.973 180.874 247.337 180.676 248.503 180.434L247.359 178.476C244.939 179.004 241.133 179.378 237.877 179.554C238.119 180.06 238.361 180.874 238.449 181.402C239.637 181.38 240.891 181.314 242.167 181.226V182.106H237.833V183.998H242.167V184.856H238.383V191.654H242.167V192.512H238.295V194.36H242.167V195.68C240.473 195.79 238.933 195.9 237.701 195.988L238.009 198.188C240.385 197.99 243.553 197.66 246.721 197.33C247.293 197.814 247.931 198.54 248.261 199.068C251.957 196.142 252.969 191.61 253.255 185.714H255.235C255.103 192.82 254.883 195.504 254.421 196.098C254.223 196.384 254.003 196.472 253.673 196.472C253.255 196.472 252.419 196.45 251.451 196.362C251.891 197.088 252.177 198.144 252.221 198.87C253.277 198.892 254.289 198.914 254.949 198.782C255.675 198.628 256.181 198.408 256.687 197.682C257.391 196.67 257.567 193.48 257.765 184.482C257.765 184.174 257.787 183.316 257.787 183.316H253.321ZM276.641 195.152H263.353V183.58H260.801V198.914H263.353V197.616H276.641V198.892H279.171V183.58H276.641V195.152ZM272.945 187.87H271.031V186.022H272.945V187.87ZM272.945 191.72H271.031V189.85H272.945V191.72ZM266.873 189.85H268.787V191.72H266.873V189.85ZM266.873 186.022H268.787V187.87H266.873V186.022ZM260.141 179.686V182.128H268.589V183.888H264.739V193.854H275.211V183.888H271.207V182.128H279.831V179.686H260.141ZM286.519 178.454C285.419 181.578 283.505 184.702 281.503 186.682C281.965 187.342 282.713 188.838 282.955 189.476C283.395 188.992 283.857 188.442 284.319 187.892V198.892H286.959V183.822C287.773 182.348 288.499 180.786 289.071 179.246L286.519 178.454ZM302.293 184.438V181.952H293.757C294.175 181.05 294.527 180.148 294.835 179.224L292.305 178.586C291.315 181.732 289.577 184.9 287.641 186.88C288.191 187.298 289.225 188.222 289.643 188.706C290.633 187.562 291.645 186.066 292.525 184.438H293.361V198.914H296.045V194.03H302.029V191.61H296.045V189.124H301.743V186.748H296.045V184.438H302.293ZM320.245 185.384C319.717 187.166 318.991 188.794 318.133 190.268C317.759 188.508 317.451 186.44 317.253 184.24H324.051V181.644H321.763L322.819 180.522C322.049 179.796 320.443 178.784 319.233 178.168L317.649 179.73C318.551 180.28 319.651 180.984 320.465 181.644H317.099C317.055 180.566 317.033 179.488 317.055 178.388H314.305C314.305 179.488 314.349 180.566 314.393 181.644H305.417V188.068C305.417 190.928 305.263 194.756 303.591 197.396C304.185 197.704 305.351 198.672 305.813 199.178C307.617 196.494 308.079 192.204 308.167 188.992H311.027C310.961 191.764 310.873 192.82 310.653 193.128C310.477 193.348 310.301 193.392 309.993 193.392C309.641 193.392 308.893 193.37 308.101 193.304C308.497 193.964 308.783 194.976 308.827 195.746C309.839 195.768 310.785 195.768 311.357 195.68C312.017 195.57 312.457 195.372 312.875 194.8C313.381 194.162 313.513 192.204 313.579 187.584C313.579 187.276 313.601 186.594 313.601 186.594H308.167V184.24H314.547C314.833 187.54 315.317 190.62 316.065 193.106C314.789 194.536 313.271 195.746 311.577 196.67C312.127 197.176 313.073 198.254 313.469 198.826C314.833 197.99 316.065 197 317.187 195.834C318.155 197.638 319.365 198.738 320.905 198.738C322.951 198.738 323.831 197.77 324.249 193.7C323.545 193.414 322.621 192.842 322.027 192.226C321.917 194.976 321.653 196.076 321.125 196.076C320.421 196.076 319.717 195.152 319.079 193.568C320.663 191.434 321.961 188.882 322.863 186.022L320.245 185.384ZM342.663 180.874C342.663 180.17 343.235 179.598 343.939 179.598C344.621 179.598 345.193 180.17 345.193 180.874C345.193 181.556 344.621 182.128 343.939 182.128C343.235 182.128 342.663 181.556 342.663 180.874ZM341.299 180.874C341.299 181.028 341.321 181.16 341.343 181.292C340.881 181.358 340.397 181.38 340.089 181.38H329.903C329.177 181.38 327.923 181.292 327.285 181.204V184.306C327.835 184.262 328.891 184.218 329.903 184.218H340.133C339.847 186.11 339.011 188.596 337.559 190.422C335.777 192.666 333.291 194.58 328.935 195.592L331.333 198.232C335.249 196.956 338.197 194.778 340.177 192.138C342.025 189.696 342.971 186.286 343.477 184.13C343.543 183.932 343.587 183.712 343.653 183.47C343.741 183.492 343.851 183.492 343.939 183.492C345.369 183.492 346.557 182.304 346.557 180.874C346.557 179.422 345.369 178.234 343.939 178.234C342.487 178.234 341.299 179.422 341.299 180.874ZM351.881 180.126V182.964C352.519 182.92 353.465 182.898 354.169 182.898H362.595C363.387 182.898 364.421 182.92 365.015 182.964V180.126C364.399 180.214 363.321 180.236 362.639 180.236H354.169C353.421 180.236 352.497 180.214 351.881 180.126ZM366.863 186.506L364.905 185.296C364.597 185.428 364.003 185.516 363.299 185.516H352.409C351.727 185.516 350.781 185.45 349.857 185.384V188.244C350.781 188.156 351.881 188.134 352.409 188.134H363.035C362.639 189.366 361.957 190.73 360.769 191.94C359.097 193.656 356.457 195.108 353.157 195.79L355.335 198.276C358.151 197.484 360.967 195.988 363.189 193.524C364.839 191.698 365.785 189.564 366.445 187.43C366.533 187.188 366.709 186.792 366.863 186.506ZM374.277 180.28L372.209 182.48C373.815 183.602 376.565 186 377.709 187.232L379.953 184.944C378.677 183.602 375.817 181.314 374.277 180.28ZM371.527 194.932L373.375 197.836C376.477 197.308 379.315 196.076 381.537 194.734C385.079 192.6 388.005 189.564 389.677 186.594L387.961 183.492C386.575 186.462 383.715 189.828 379.953 192.05C377.819 193.326 374.959 194.448 371.527 194.932ZM392.371 197V181.359H397.85C399.747 181.359 401.187 181.725 402.168 182.455C403.149 183.178 403.64 184.242 403.64 185.646C403.64 186.412 403.443 187.089 403.049 187.676C402.655 188.256 402.107 188.682 401.405 188.954C402.207 189.155 402.838 189.559 403.296 190.168C403.761 190.777 403.994 191.521 403.994 192.402C403.994 193.906 403.514 195.045 402.555 195.818C401.595 196.592 400.227 196.986 398.451 197H392.371ZM395.594 190.189V194.411H398.354C399.114 194.411 399.704 194.232 400.127 193.874C400.557 193.509 400.771 193.007 400.771 192.37C400.771 190.938 400.03 190.211 398.548 190.189H395.594ZM395.594 187.912H397.979C399.604 187.883 400.417 187.235 400.417 185.968C400.417 185.259 400.209 184.75 399.794 184.442C399.386 184.127 398.738 183.97 397.85 183.97H395.594V187.912Z" fill="white"/>
<path d="M586.943 341.5H55.0575C52.7565 341.498 50.5674 340.768 48.9673 339.493C47.3702 338.22 46.5026 336.523 46.5 334.783V129.217C46.5026 127.477 47.3702 125.78 48.9673 124.507C50.5673 123.232 52.7564 122.502 55.0572 122.5H586.943C589.243 122.502 591.433 123.232 593.033 124.507C594.63 125.78 595.498 127.478 595.5 129.217V334.784C595.498 336.522 594.63 338.22 593.033 339.493C591.433 340.768 589.243 341.498 586.943 341.5Z" stroke="#DCDCDC"/>
<path d="M631 62.1036H10V47.8068C10.0053 43.0858 11.8759 38.5597 15.2013 35.2214C18.5267 31.8831 23.0354 30.0053 27.7383 30H613.262C617.965 30.0053 622.473 31.8831 625.799 35.2214C629.124 38.5597 630.995 43.0858 631 47.8068V62.1036Z" fill="#1C68B6"/>
<rect width="124" height="35" transform="translate(61 103)" fill="white"/>
<path d="M71.9412 114.162V135.792H77.1941V122.345C75.6297 121.633 74.3022 120.483 73.3706 119.032C72.4389 117.58 71.9427 115.89 71.9412 114.162Z" fill="#FFC843"/>
<path d="M77.198 114.162V122.345C78.3486 122.867 79.5965 123.137 80.8588 123.136H90.5786V117.849H80.857C79.8868 117.849 78.9567 117.46 78.2707 116.77C77.5848 116.08 77.199 115.143 77.198 114.167" fill="#00B3E3"/>
<path d="M90.5785 105.188H80.8568C78.8171 105.188 76.8392 105.892 75.253 107.182C73.6667 108.473 72.568 110.272 72.14 112.279C71.7119 114.286 71.9805 116.38 72.901 118.211C73.8214 120.043 75.338 121.502 77.1979 122.345V114.162C77.1988 113.185 77.5846 112.249 78.2706 111.559C78.9566 110.869 79.8867 110.48 80.8568 110.479H90.5785V105.193" fill="#008C3C"/>
<path d="M97.5848 116.524H92.3318V123.69C92.331 122.115 92.8448 120.584 93.7941 119.332C94.7433 118.081 96.0753 117.178 97.5848 116.763V116.524Z" fill="#DA3AB3"/>
<path d="M99.4486 116.524C98.8193 116.524 98.1927 116.607 97.5847 116.77V123.697C97.5848 123.326 97.6942 122.964 97.8992 122.655C98.1041 122.347 98.3953 122.106 98.736 121.965C99.0767 121.823 99.4515 121.786 99.8131 121.858C100.175 121.931 100.507 122.11 100.767 122.372L104.484 118.63C103.825 117.962 103.04 117.432 102.176 117.072C101.311 116.712 100.384 116.528 99.4486 116.532" fill="#00B3E3"/>
<path d="M97.5848 116.77C96.0753 117.185 94.7433 118.088 93.7941 119.34C92.8448 120.592 92.331 122.123 92.3318 123.697V135.792H97.5848V116.77Z" fill="#00299F"/>
<path d="M114.066 116.526C112.174 116.525 110.324 117.089 108.75 118.146C107.177 119.203 105.95 120.706 105.225 122.465C104.5 124.224 104.31 126.16 104.678 128.028C105.047 129.895 105.957 131.611 107.295 132.958C108.633 134.305 110.337 135.222 112.193 135.594C114.049 135.966 115.972 135.776 117.72 135.047C119.469 134.319 120.963 133.085 122.014 131.502C123.066 129.919 123.627 128.057 123.627 126.153C123.627 124.889 123.379 123.637 122.899 122.468C122.418 121.3 121.713 120.239 120.824 119.345C119.936 118.451 118.881 117.742 117.72 117.258C116.56 116.775 115.316 116.526 114.059 116.526H114.066ZM114.059 130.488C113.207 130.487 112.374 130.231 111.667 129.754C110.959 129.277 110.407 128.599 110.082 127.807C109.756 127.014 109.672 126.143 109.839 125.302C110.006 124.461 110.417 123.689 111.019 123.083C111.622 122.477 112.39 122.064 113.226 121.897C114.062 121.73 114.928 121.817 115.715 122.145C116.502 122.473 117.175 123.029 117.648 123.742C118.121 124.455 118.374 125.294 118.374 126.151C118.374 126.721 118.263 127.285 118.047 127.811C117.83 128.338 117.513 128.816 117.113 129.219C116.713 129.621 116.237 129.941 115.714 130.159C115.191 130.376 114.631 130.488 114.065 130.488" fill="#FFC843"/>
<path d="M134.934 116.526C133.042 116.526 131.192 117.091 129.619 118.148C128.046 119.206 126.82 120.71 126.096 122.469C125.372 124.228 125.182 126.164 125.551 128.031C125.921 129.898 126.832 131.614 128.169 132.96C129.507 134.306 131.212 135.223 133.067 135.595C134.923 135.966 136.846 135.776 138.594 135.047C140.342 134.318 141.836 133.084 142.887 131.501C143.938 129.918 144.499 128.057 144.499 126.153C144.499 123.6 143.492 121.151 141.698 119.346C139.904 117.54 137.471 116.526 134.934 116.526ZM134.934 130.488C134.082 130.487 133.249 130.233 132.541 129.756C131.833 129.28 131.281 128.603 130.955 127.811C130.63 127.019 130.545 126.147 130.711 125.307C130.877 124.466 131.287 123.694 131.89 123.088C132.492 122.481 133.259 122.069 134.095 121.901C134.93 121.734 135.796 121.82 136.583 122.148C137.37 122.475 138.043 123.031 138.516 123.743C138.99 124.456 139.242 125.294 139.243 126.151C139.243 126.721 139.132 127.285 138.916 127.811C138.699 128.338 138.382 128.816 137.982 129.219C137.581 129.621 137.106 129.941 136.583 130.159C136.06 130.376 135.5 130.488 134.934 130.488Z" fill="#FFC843"/>
<path d="M151.491 116.537H146.238V124.984C146.241 123.3 146.742 121.655 147.677 120.259C148.613 118.863 149.941 117.779 151.491 117.146V116.544" fill="#00B3E3"/>
<path d="M154.639 116.524C153.56 116.523 152.491 116.732 151.491 117.14V124.979C151.491 124.139 151.823 123.333 152.413 122.739C153.004 122.144 153.804 121.811 154.639 121.811C155.474 121.811 156.275 122.144 156.865 122.739C157.456 123.333 157.788 124.139 157.788 124.979C157.787 123.829 158.02 122.692 158.472 121.636C158.924 120.581 159.586 119.629 160.416 118.839C158.857 117.35 156.789 116.521 154.639 116.524Z" fill="#DA3AB3"/>
<path d="M151.491 117.139C149.941 117.772 148.614 118.856 147.678 120.252C146.742 121.648 146.241 123.293 146.238 124.977V135.792H151.491V117.139Z" fill="#00299F"/>
<path d="M166.194 116.524C164.045 116.522 161.977 117.351 160.418 118.839C161.248 119.629 161.909 120.581 162.361 121.636C162.813 122.692 163.046 123.829 163.046 124.979C163.046 124.139 163.378 123.333 163.968 122.739C164.559 122.144 165.359 121.811 166.194 121.811C167.029 121.811 167.83 122.144 168.42 122.739C169.011 123.333 169.342 124.139 169.342 124.979V135.792H174.595V124.984C174.593 122.742 173.707 120.593 172.132 119.007C170.558 117.421 168.422 116.528 166.194 116.524Z" fill="#FFC843"/>
<path d="M160.416 118.839C159.586 119.629 158.925 120.581 158.473 121.636C158.021 122.692 157.788 123.829 157.788 124.979V135.792H163.041V124.984C163.042 123.834 162.81 122.696 162.359 121.639C161.908 120.582 161.246 119.63 160.416 118.839Z" fill="#DA2D2F"/>
<rect x="91" y="251" width="200" height="70" rx="6" fill="#EEEEEE"/>
<path d="M114.167 291.36H118.149V289.512H114.167V288.654H118.061V281.856H114.167V280.998H118.391V282.714H120.393C120.239 286.652 119.711 289.798 117.995 292.174C116.719 292.284 115.421 292.394 114.167 292.482V291.36ZM110.075 287.026V286.036H111.791V287.026H110.075ZM115.883 286.036V287.026H114.167V286.036H115.883ZM114.167 284.474V283.506H115.883V284.474H114.167ZM110.075 283.506H111.791V284.474H110.075V283.506ZM122.945 280.316C122.989 278.864 122.989 277.324 122.989 275.718H120.481C120.481 277.346 120.481 278.864 120.459 280.316H118.391V279.106H114.167V278.028C115.597 277.874 116.961 277.676 118.127 277.434L116.983 275.476C114.563 276.004 110.757 276.378 107.501 276.554C107.743 277.06 107.985 277.874 108.073 278.402C109.261 278.38 110.515 278.314 111.791 278.226V279.106H107.457V280.998H111.791V281.856H108.007V288.654H111.791V289.512H107.919V291.36H111.791V292.68C110.097 292.79 108.557 292.9 107.325 292.988L107.633 295.188C110.009 294.99 113.177 294.66 116.345 294.33C116.917 294.814 117.555 295.54 117.885 296.068C121.581 293.142 122.593 288.61 122.879 282.714H124.859C124.727 289.82 124.507 292.504 124.045 293.098C123.847 293.384 123.627 293.472 123.297 293.472C122.879 293.472 122.043 293.45 121.075 293.362C121.515 294.088 121.801 295.144 121.845 295.87C122.901 295.892 123.913 295.914 124.573 295.782C125.299 295.628 125.805 295.408 126.311 294.682C127.015 293.67 127.191 290.48 127.389 281.482C127.389 281.174 127.411 280.316 127.411 280.316H122.945ZM146.265 292.152H132.977V280.58H130.425V295.914H132.977V294.616H146.265V295.892H148.795V280.58H146.265V292.152ZM142.569 284.87H140.655V283.022H142.569V284.87ZM142.569 288.72H140.655V286.85H142.569V288.72ZM136.497 286.85H138.411V288.72H136.497V286.85ZM136.497 283.022H138.411V284.87H136.497V283.022ZM129.765 276.686V279.128H138.213V280.888H134.363V290.854H144.835V280.888H140.831V279.128H149.455V276.686H129.765ZM156.143 275.454C155.043 278.578 153.129 281.702 151.127 283.682C151.589 284.342 152.337 285.838 152.579 286.476C153.019 285.992 153.481 285.442 153.943 284.892V295.892H156.583V280.822C157.397 279.348 158.123 277.786 158.695 276.246L156.143 275.454ZM171.917 281.438V278.952H163.381C163.799 278.05 164.151 277.148 164.459 276.224L161.929 275.586C160.939 278.732 159.201 281.9 157.265 283.88C157.815 284.298 158.849 285.222 159.267 285.706C160.257 284.562 161.269 283.066 162.149 281.438H162.985V295.914H165.669V291.03H171.653V288.61H165.669V286.124H171.367V283.748H165.669V281.438H171.917ZM189.869 282.384C189.341 284.166 188.615 285.794 187.757 287.268C187.383 285.508 187.075 283.44 186.877 281.24H193.675V278.644H191.387L192.443 277.522C191.673 276.796 190.067 275.784 188.857 275.168L187.273 276.73C188.175 277.28 189.275 277.984 190.089 278.644H186.723C186.679 277.566 186.657 276.488 186.679 275.388H183.929C183.929 276.488 183.973 277.566 184.017 278.644H175.041V285.068C175.041 287.928 174.887 291.756 173.215 294.396C173.809 294.704 174.975 295.672 175.437 296.178C177.241 293.494 177.703 289.204 177.791 285.992H180.651C180.585 288.764 180.497 289.82 180.277 290.128C180.101 290.348 179.925 290.392 179.617 290.392C179.265 290.392 178.517 290.37 177.725 290.304C178.121 290.964 178.407 291.976 178.451 292.746C179.463 292.768 180.409 292.768 180.981 292.68C181.641 292.57 182.081 292.372 182.499 291.8C183.005 291.162 183.137 289.204 183.203 284.584C183.203 284.276 183.225 283.594 183.225 283.594H177.791V281.24H184.171C184.457 284.54 184.941 287.62 185.689 290.106C184.413 291.536 182.895 292.746 181.201 293.67C181.751 294.176 182.697 295.254 183.093 295.826C184.457 294.99 185.689 294 186.811 292.834C187.779 294.638 188.989 295.738 190.529 295.738C192.575 295.738 193.455 294.77 193.873 290.7C193.169 290.414 192.245 289.842 191.651 289.226C191.541 291.976 191.277 293.076 190.749 293.076C190.045 293.076 189.341 292.152 188.703 290.568C190.287 288.434 191.585 285.882 192.487 283.022L189.869 282.384ZM212.287 277.874C212.287 277.17 212.859 276.598 213.563 276.598C214.245 276.598 214.817 277.17 214.817 277.874C214.817 278.556 214.245 279.128 213.563 279.128C212.859 279.128 212.287 278.556 212.287 277.874ZM210.923 277.874C210.923 278.028 210.945 278.16 210.967 278.292C210.505 278.358 210.021 278.38 209.713 278.38H199.527C198.801 278.38 197.547 278.292 196.909 278.204V281.306C197.459 281.262 198.515 281.218 199.527 281.218H209.757C209.471 283.11 208.635 285.596 207.183 287.422C205.401 289.666 202.915 291.58 198.559 292.592L200.957 295.232C204.873 293.956 207.821 291.778 209.801 289.138C211.649 286.696 212.595 283.286 213.101 281.13C213.167 280.932 213.211 280.712 213.277 280.47C213.365 280.492 213.475 280.492 213.563 280.492C214.993 280.492 216.181 279.304 216.181 277.874C216.181 276.422 214.993 275.234 213.563 275.234C212.111 275.234 210.923 276.422 210.923 277.874ZM221.505 277.126V279.964C222.143 279.92 223.089 279.898 223.793 279.898H232.219C233.011 279.898 234.045 279.92 234.639 279.964V277.126C234.023 277.214 232.945 277.236 232.263 277.236H223.793C223.045 277.236 222.121 277.214 221.505 277.126ZM236.487 283.506L234.529 282.296C234.221 282.428 233.627 282.516 232.923 282.516H222.033C221.351 282.516 220.405 282.45 219.481 282.384V285.244C220.405 285.156 221.505 285.134 222.033 285.134H232.659C232.263 286.366 231.581 287.73 230.393 288.94C228.721 290.656 226.081 292.108 222.781 292.79L224.959 295.276C227.775 294.484 230.591 292.988 232.813 290.524C234.463 288.698 235.409 286.564 236.069 284.43C236.157 284.188 236.333 283.792 236.487 283.506ZM243.901 277.28L241.833 279.48C243.439 280.602 246.189 283 247.333 284.232L249.577 281.944C248.301 280.602 245.441 278.314 243.901 277.28ZM241.151 291.932L242.999 294.836C246.101 294.308 248.939 293.076 251.161 291.734C254.703 289.6 257.629 286.564 259.301 283.594L257.585 280.492C256.199 283.462 253.339 286.828 249.577 289.05C247.443 290.326 244.583 291.448 241.151 291.932ZM270.825 290.777H265.175L264.101 294H260.674L266.496 278.359H269.482L275.337 294H271.91L270.825 290.777ZM266.045 288.167H269.955L267.989 282.312L266.045 288.167Z" fill="#999999"/>
<rect x="351" y="251" width="200" height="70" rx="6" fill="#EEEEEE"/>
<path d="M374.371 291.36H378.353V289.512H374.371V288.654H378.265V281.856H374.371V280.998H378.595V282.714H380.597C380.443 286.652 379.915 289.798 378.199 292.174C376.923 292.284 375.625 292.394 374.371 292.482V291.36ZM370.279 287.026V286.036H371.995V287.026H370.279ZM376.087 286.036V287.026H374.371V286.036H376.087ZM374.371 284.474V283.506H376.087V284.474H374.371ZM370.279 283.506H371.995V284.474H370.279V283.506ZM383.149 280.316C383.193 278.864 383.193 277.324 383.193 275.718H380.685C380.685 277.346 380.685 278.864 380.663 280.316H378.595V279.106H374.371V278.028C375.801 277.874 377.165 277.676 378.331 277.434L377.187 275.476C374.767 276.004 370.961 276.378 367.705 276.554C367.947 277.06 368.189 277.874 368.277 278.402C369.465 278.38 370.719 278.314 371.995 278.226V279.106H367.661V280.998H371.995V281.856H368.211V288.654H371.995V289.512H368.123V291.36H371.995V292.68C370.301 292.79 368.761 292.9 367.529 292.988L367.837 295.188C370.213 294.99 373.381 294.66 376.549 294.33C377.121 294.814 377.759 295.54 378.089 296.068C381.785 293.142 382.797 288.61 383.083 282.714H385.063C384.931 289.82 384.711 292.504 384.249 293.098C384.051 293.384 383.831 293.472 383.501 293.472C383.083 293.472 382.247 293.45 381.279 293.362C381.719 294.088 382.005 295.144 382.049 295.87C383.105 295.892 384.117 295.914 384.777 295.782C385.503 295.628 386.009 295.408 386.515 294.682C387.219 293.67 387.395 290.48 387.593 281.482C387.593 281.174 387.615 280.316 387.615 280.316H383.149ZM406.469 292.152H393.181V280.58H390.629V295.914H393.181V294.616H406.469V295.892H408.999V280.58H406.469V292.152ZM402.773 284.87H400.859V283.022H402.773V284.87ZM402.773 288.72H400.859V286.85H402.773V288.72ZM396.701 286.85H398.615V288.72H396.701V286.85ZM396.701 283.022H398.615V284.87H396.701V283.022ZM389.969 276.686V279.128H398.417V280.888H394.567V290.854H405.039V280.888H401.035V279.128H409.659V276.686H389.969ZM416.347 275.454C415.247 278.578 413.333 281.702 411.331 283.682C411.793 284.342 412.541 285.838 412.783 286.476C413.223 285.992 413.685 285.442 414.147 284.892V295.892H416.787V280.822C417.601 279.348 418.327 277.786 418.899 276.246L416.347 275.454ZM432.121 281.438V278.952H423.585C424.003 278.05 424.355 277.148 424.663 276.224L422.133 275.586C421.143 278.732 419.405 281.9 417.469 283.88C418.019 284.298 419.053 285.222 419.471 285.706C420.461 284.562 421.473 283.066 422.353 281.438H423.189V295.914H425.873V291.03H431.857V288.61H425.873V286.124H431.571V283.748H425.873V281.438H432.121ZM450.073 282.384C449.545 284.166 448.819 285.794 447.961 287.268C447.587 285.508 447.279 283.44 447.081 281.24H453.879V278.644H451.591L452.647 277.522C451.877 276.796 450.271 275.784 449.061 275.168L447.477 276.73C448.379 277.28 449.479 277.984 450.293 278.644H446.927C446.883 277.566 446.861 276.488 446.883 275.388H444.133C444.133 276.488 444.177 277.566 444.221 278.644H435.245V285.068C435.245 287.928 435.091 291.756 433.419 294.396C434.013 294.704 435.179 295.672 435.641 296.178C437.445 293.494 437.907 289.204 437.995 285.992H440.855C440.789 288.764 440.701 289.82 440.481 290.128C440.305 290.348 440.129 290.392 439.821 290.392C439.469 290.392 438.721 290.37 437.929 290.304C438.325 290.964 438.611 291.976 438.655 292.746C439.667 292.768 440.613 292.768 441.185 292.68C441.845 292.57 442.285 292.372 442.703 291.8C443.209 291.162 443.341 289.204 443.407 284.584C443.407 284.276 443.429 283.594 443.429 283.594H437.995V281.24H444.375C444.661 284.54 445.145 287.62 445.893 290.106C444.617 291.536 443.099 292.746 441.405 293.67C441.955 294.176 442.901 295.254 443.297 295.826C444.661 294.99 445.893 294 447.015 292.834C447.983 294.638 449.193 295.738 450.733 295.738C452.779 295.738 453.659 294.77 454.077 290.7C453.373 290.414 452.449 289.842 451.855 289.226C451.745 291.976 451.481 293.076 450.953 293.076C450.249 293.076 449.545 292.152 448.907 290.568C450.491 288.434 451.789 285.882 452.691 283.022L450.073 282.384ZM472.491 277.874C472.491 277.17 473.063 276.598 473.767 276.598C474.449 276.598 475.021 277.17 475.021 277.874C475.021 278.556 474.449 279.128 473.767 279.128C473.063 279.128 472.491 278.556 472.491 277.874ZM471.127 277.874C471.127 278.028 471.149 278.16 471.171 278.292C470.709 278.358 470.225 278.38 469.917 278.38H459.731C459.005 278.38 457.751 278.292 457.113 278.204V281.306C457.663 281.262 458.719 281.218 459.731 281.218H469.961C469.675 283.11 468.839 285.596 467.387 287.422C465.605 289.666 463.119 291.58 458.763 292.592L461.161 295.232C465.077 293.956 468.025 291.778 470.005 289.138C471.853 286.696 472.799 283.286 473.305 281.13C473.371 280.932 473.415 280.712 473.481 280.47C473.569 280.492 473.679 280.492 473.767 280.492C475.197 280.492 476.385 279.304 476.385 277.874C476.385 276.422 475.197 275.234 473.767 275.234C472.315 275.234 471.127 276.422 471.127 277.874ZM481.709 277.126V279.964C482.347 279.92 483.293 279.898 483.997 279.898H492.423C493.215 279.898 494.249 279.92 494.843 279.964V277.126C494.227 277.214 493.149 277.236 492.467 277.236H483.997C483.249 277.236 482.325 277.214 481.709 277.126ZM496.691 283.506L494.733 282.296C494.425 282.428 493.831 282.516 493.127 282.516H482.237C481.555 282.516 480.609 282.45 479.685 282.384V285.244C480.609 285.156 481.709 285.134 482.237 285.134H492.863C492.467 286.366 491.785 287.73 490.597 288.94C488.925 290.656 486.285 292.108 482.985 292.79L485.163 295.276C487.979 294.484 490.795 292.988 493.017 290.524C494.667 288.698 495.613 286.564 496.273 284.43C496.361 284.188 496.537 283.792 496.691 283.506ZM504.105 277.28L502.037 279.48C503.643 280.602 506.393 283 507.537 284.232L509.781 281.944C508.505 280.602 505.645 278.314 504.105 277.28ZM501.355 291.932L503.203 294.836C506.305 294.308 509.143 293.076 511.365 291.734C514.907 289.6 517.833 286.564 519.505 283.594L517.789 280.492C516.403 283.462 513.543 286.828 509.781 289.05C507.647 290.326 504.787 291.448 501.355 291.932ZM534.478 288.79C534.356 290.473 533.733 291.798 532.608 292.765C531.491 293.731 530.016 294.215 528.183 294.215C526.177 294.215 524.598 293.542 523.445 292.195C522.299 290.842 521.727 288.987 521.727 286.631V285.675C521.727 284.171 521.992 282.846 522.521 281.7C523.051 280.554 523.807 279.677 524.788 279.068C525.776 278.452 526.922 278.145 528.226 278.145C530.03 278.145 531.484 278.628 532.587 279.595C533.69 280.562 534.327 281.919 534.499 283.666H531.276C531.198 282.656 530.915 281.926 530.428 281.475C529.948 281.016 529.214 280.787 528.226 280.787C527.151 280.787 526.346 281.174 525.809 281.947C525.279 282.714 525.007 283.906 524.992 285.524V286.706C524.992 288.396 525.246 289.632 525.755 290.412C526.271 291.193 527.08 291.583 528.183 291.583C529.178 291.583 529.919 291.357 530.406 290.906C530.9 290.448 531.183 289.743 531.255 288.79H534.478Z" fill="#999999"/>
<path d="M681.463 687.058H331.463C331.198 687.058 330.943 686.953 330.756 686.765C330.568 686.578 330.463 686.323 330.463 686.058C330.463 685.793 330.568 685.539 330.756 685.351C330.943 685.163 331.198 685.058 331.463 685.058H681.463C681.728 685.058 681.982 685.163 682.17 685.351C682.358 685.539 682.463 685.793 682.463 686.058C682.463 686.323 682.358 686.578 682.17 686.765C681.982 686.953 681.728 687.058 681.463 687.058Z" fill="#CCCCCC"/>
<path d="M640.616 358.009H582.862C580.295 353.229 576.414 349.151 582.862 339.549C582.862 333.175 585.336 327.049 589.762 322.462C594.188 317.875 600.222 315.184 606.592 314.957C619.085 311.223 628.082 318.805 630.527 330.951L640.616 358.009Z" fill="#2F2E41"/>
<path d="M526.107 368.04C527.158 368.155 528.17 368.5 529.072 369.049C529.975 369.598 530.746 370.338 531.332 371.217C531.917 372.096 532.303 373.094 532.462 374.138C532.62 375.183 532.548 376.249 532.25 377.263L577.071 414.542L564.618 419.339L522.758 382.076C521.089 381.462 519.703 380.257 518.862 378.69C518.022 377.122 517.786 375.301 518.198 373.57C518.611 371.84 519.644 370.322 521.102 369.302C522.56 368.283 524.341 367.834 526.107 368.04Z" fill="#FFB6B6"/>
<path d="M578.026 430.64C568.094 430.642 529.344 390.037 527.654 388.259L527.224 387.807L541.568 383.97L575.979 408.921L588.523 387.692C589.91 385.351 591.986 383.496 594.469 382.381C596.951 381.266 599.717 380.946 602.388 381.465C604.753 381.926 606.945 383.028 608.727 384.649C610.509 386.27 611.812 388.348 612.495 390.658C613.178 392.968 613.215 395.422 612.601 397.751C611.987 400.08 610.745 402.197 609.012 403.87L585.287 426.774C583.463 428.531 581.242 429.822 578.813 430.537C578.557 430.608 578.292 430.643 578.026 430.64Z" fill="#1C68B6"/>
<path d="M578.79 425.018L583.603 443.158L623.586 452.015L620.995 442.788L628.448 434.851L620.254 421.316L578.79 425.018Z" fill="#FFB8B8"/>
<path d="M575.254 672.466H567.442L563.724 642.334H575.254V672.466Z" fill="#FFB8B8"/>
<path d="M579.377 686H573.775L572.775 680.711L570.214 686H555.355C554.643 686 553.95 685.773 553.376 685.351C552.802 684.929 552.378 684.334 552.166 683.654C551.955 682.974 551.965 682.245 552.198 681.571C552.43 680.898 552.871 680.317 553.457 679.912L565.323 671.717V666.37L577.803 667.115L579.377 686Z" fill="#2F2E41"/>
<path d="M673.161 665.83L665.902 668.719L651.304 642.099L662.016 637.835L673.161 665.83Z" fill="#FFB8B8"/>
<path d="M681.997 676.879L676.792 678.951L673.907 674.407L673.484 680.268L659.679 685.764C659.017 686.027 658.289 686.072 657.6 685.892C656.91 685.712 656.297 685.317 655.849 684.763C655.4 684.21 655.14 683.528 655.107 682.816C655.074 682.105 655.269 681.401 655.664 680.809L663.657 668.807L661.68 663.839L673.551 659.915L681.997 676.879Z" fill="#2F2E41"/>
<path d="M628.286 436.957L627.545 436.314C627.326 436.126 605.408 417.637 578.075 434.9L577.189 435.459L571.591 410.827C570.94 407.995 571.088 405.037 572.02 402.285C572.951 399.532 574.629 397.092 576.867 395.237L596.6 378.819L603.521 375.359L602.642 369.647C602.474 368.523 602.695 367.376 603.268 366.396C603.842 365.416 604.734 364.662 605.797 364.259L616.551 360.227C617.753 359.77 619.086 359.801 620.266 360.314C621.445 360.827 622.377 361.781 622.863 362.972L624.003 365.729L626.443 364.871C627.923 364.331 629.495 364.089 631.069 364.16C632.643 364.23 634.187 364.611 635.613 365.281C637.043 365.974 638.311 366.96 639.337 368.174C640.362 369.389 641.121 370.805 641.564 372.331C645.76 386.52 644.635 401.752 638.401 415.171L628.286 436.957Z" fill="#1C68B6"/>
<path d="M578.267 658.624H562.108L566.574 582.708L563.309 531.251L563.316 531.21L575.492 457.448C576.45 451.632 579.038 446.206 582.956 441.802L583.105 441.635L623.852 451.699L627.949 461.041C641.939 469.361 646.357 516.28 646.538 518.279L652.461 576.768L666.949 648.454L656.746 653.947L656.575 653.607L624.367 589.56L604.026 522.018L590.999 582.807L578.267 658.624Z" fill="#2F2E41"/>
<path d="M643.443 498.106C642.698 497.357 642.126 496.454 641.768 495.46C641.41 494.466 641.274 493.406 641.369 492.354C641.465 491.301 641.791 490.283 642.322 489.37C642.854 488.458 643.58 487.672 644.448 487.07L632.942 429.919L645.648 433.999L654.859 489.278C655.773 490.804 656.097 492.612 655.767 494.36C655.438 496.108 654.479 497.675 653.072 498.763C651.665 499.851 649.908 500.385 648.133 500.264C646.358 500.143 644.69 499.375 643.443 498.106V498.106Z" fill="#FFB6B6"/>
<path d="M626.454 377.189L634.338 371.238C634.338 371.238 641.293 370.745 642.524 383.287C643.756 395.829 646.285 420.272 646.285 420.272L658.349 476.147L641.65 479.812L628.728 419.513L620.977 401.607L626.454 377.189Z" fill="#1C68B6"/>
<path d="M602.872 357.351C613.495 357.351 622.106 348.739 622.106 338.117C622.106 327.494 613.495 318.883 602.872 318.883C592.249 318.883 583.638 327.494 583.638 338.117C583.638 348.739 592.249 357.351 602.872 357.351Z" fill="#FFB8B8"/>
<path d="M613.854 319.448C610.533 316.16 606.047 314.318 601.373 314.323H597.671C592.958 314.323 588.438 316.196 585.106 319.528C581.773 322.861 579.901 327.381 579.901 332.094V332.094C583.134 334.897 598.788 334.321 608.037 333.575C607.374 343.21 599.189 352.678 601.373 358.009H638.395V354.307C641.564 338.039 629.73 324.47 613.854 319.448Z" fill="#2F2E41"/>
<path d="M690.606 298.494C689.136 303.338 686.189 306.961 682.035 309.062C679.086 310.554 674.637 312.549 673.654 315.787L672.842 318.467L662.122 315.215L662.935 312.536C663.927 309.264 661.324 305.123 659.703 302.288C657.456 298.363 657.03 293.411 658.447 288.739L658.477 288.64C659.784 284.381 662.73 280.814 666.666 278.726C670.603 276.638 675.207 276.199 679.467 277.505C683.727 278.812 687.294 281.757 689.383 285.693C691.472 289.629 691.911 294.233 690.606 298.494Z" fill="#FFA216"/>
<path d="M672.727 318.843C672.628 318.813 672.544 318.744 672.495 318.652C672.446 318.56 672.435 318.452 672.465 318.353L673.278 315.673C674.234 312.523 678.232 310.524 681.152 309.065C681.394 308.944 681.63 308.827 681.857 308.712C685.905 306.663 688.8 303.091 690.229 298.38C692.899 289.575 688.094 280.585 679.289 277.915L679.245 277.901C675.1 276.649 670.627 277.089 666.806 279.125C662.984 281.161 660.124 284.627 658.851 288.766L658.824 288.853C657.425 293.467 657.869 298.293 660.044 302.094C660.154 302.287 660.269 302.485 660.387 302.689C662.032 305.538 664.286 309.438 663.311 312.65L662.499 315.33C662.468 315.429 662.4 315.513 662.308 315.562C662.216 315.611 662.108 315.622 662.008 315.592C661.909 315.561 661.825 315.493 661.776 315.401C661.727 315.309 661.716 315.201 661.746 315.101L662.559 312.422C663.434 309.536 661.28 305.806 659.707 303.082C659.588 302.877 659.473 302.677 659.362 302.484C657.08 298.496 656.61 293.445 658.072 288.625L658.099 288.535C660.864 279.51 670.446 274.41 679.472 277.148L679.518 277.162C683.866 278.456 687.522 281.425 689.682 285.414C691.841 289.404 692.327 294.088 691.033 298.436C691.016 298.493 690.998 298.551 690.981 298.608C689.488 303.529 686.456 307.266 682.212 309.413C681.984 309.528 681.747 309.647 681.503 309.768C678.712 311.164 674.887 313.075 674.03 315.901L673.217 318.581C673.187 318.68 673.118 318.764 673.026 318.813C672.934 318.862 672.827 318.873 672.727 318.843L672.727 318.843Z" fill="#3F3D56"/>
<path d="M669.477 323.127L662.331 320.96C662.165 320.909 662.025 320.795 661.943 320.642C661.862 320.488 661.844 320.309 661.894 320.143C661.945 319.976 662.059 319.837 662.212 319.755C662.366 319.673 662.545 319.656 662.711 319.706L669.858 321.874C670.024 321.924 670.163 322.038 670.245 322.192C670.327 322.345 670.345 322.524 670.294 322.691C670.244 322.857 670.13 322.996 669.976 323.078C669.823 323.16 669.644 323.178 669.477 323.127Z" fill="#FFA216"/>
<path d="M665.399 326.477L663.861 326.01C663.327 325.848 662.846 325.544 662.472 325.13C662.416 325.07 662.382 324.993 662.375 324.911C662.369 324.829 662.39 324.747 662.435 324.679C662.479 324.608 662.546 324.553 662.624 324.524C662.702 324.495 662.788 324.492 662.868 324.517L667.054 325.787C667.134 325.811 667.204 325.86 667.253 325.928C667.302 325.996 667.327 326.078 667.324 326.162C667.324 326.244 667.296 326.324 667.245 326.388C667.194 326.452 667.122 326.498 667.043 326.517C666.501 326.653 665.933 326.639 665.399 326.477Z" fill="#3F3D56"/>
<path d="M668.878 325.108L661.689 322.927L661.682 322.872C661.687 322.778 661.714 322.686 661.76 322.604C661.806 322.522 661.871 322.451 661.949 322.398C662.028 322.342 662.118 322.306 662.214 322.291C662.309 322.276 662.406 322.283 662.498 322.311L668.586 324.158C668.679 324.186 668.763 324.234 668.834 324.299C668.905 324.365 668.96 324.445 668.995 324.535C669.03 324.622 669.045 324.715 669.038 324.808C669.031 324.901 669.004 324.991 668.957 325.072L668.931 325.117L668.878 325.108Z" fill="#3F3D56"/>
<path d="M662.384 273.798C662.232 273.752 662.102 273.652 662.019 273.518L658.061 267.186C657.971 267.039 657.942 266.862 657.982 266.694C658.022 266.526 658.126 266.38 658.272 266.289C658.419 266.197 658.595 266.167 658.764 266.205C658.932 266.243 659.079 266.346 659.172 266.492L663.13 272.824C663.2 272.937 663.235 273.069 663.229 273.202C663.222 273.335 663.175 273.463 663.094 273.569C663.013 273.675 662.902 273.754 662.775 273.795C662.648 273.835 662.511 273.837 662.384 273.798L662.384 273.798Z" fill="#FFA216"/>
<path d="M694.74 283.612C694.612 283.573 694.5 283.496 694.417 283.392C694.334 283.288 694.285 283.16 694.276 283.027C694.268 282.894 694.3 282.761 694.369 282.647C694.437 282.533 694.539 282.442 694.661 282.388L701.47 279.321C701.628 279.252 701.807 279.247 701.968 279.309C702.129 279.371 702.259 279.494 702.33 279.652C702.401 279.809 702.407 279.988 702.347 280.15C702.286 280.312 702.164 280.443 702.008 280.515L695.199 283.582C695.055 283.647 694.892 283.658 694.74 283.612Z" fill="#FFA216"/>
<path d="M671.939 321.444L661.219 318.193C661.053 318.143 660.913 318.028 660.831 317.875C660.75 317.722 660.732 317.542 660.782 317.376C660.833 317.21 660.947 317.07 661.1 316.988C661.254 316.906 661.433 316.889 661.599 316.939L672.319 320.191C672.485 320.241 672.624 320.355 672.706 320.509C672.788 320.662 672.806 320.841 672.756 321.008C672.705 321.174 672.591 321.313 672.437 321.395C672.284 321.477 672.105 321.495 671.939 321.444Z" fill="#FFA216"/>
<path d="M671.283 303.362L664.99 316.085L663.717 315.699L670.108 302.781C670.185 302.626 670.321 302.507 670.486 302.451C670.65 302.395 670.83 302.407 670.986 302.484C671.142 302.561 671.261 302.697 671.317 302.862C671.372 303.026 671.36 303.207 671.283 303.362Z" fill="#E6E6E6"/>
<path d="M671.503 318.061L670.23 317.675L672.065 303.6C672.088 303.427 672.178 303.271 672.316 303.165C672.454 303.059 672.628 303.012 672.8 303.035C672.973 303.057 673.129 303.147 673.235 303.285C673.341 303.423 673.388 303.597 673.365 303.769L671.503 318.061Z" fill="#E6E6E6"/>
<path d="M667.608 301.759C667.658 301.593 667.773 301.453 667.926 301.371C668.079 301.289 668.258 301.272 668.425 301.322L675.319 303.413C675.486 303.464 675.625 303.578 675.707 303.731C675.789 303.885 675.807 304.064 675.756 304.23C675.706 304.397 675.591 304.536 675.438 304.618C675.285 304.7 675.105 304.718 674.939 304.667L668.044 302.576C667.878 302.525 667.739 302.411 667.657 302.258C667.575 302.105 667.557 301.925 667.608 301.759Z" fill="#E6E6E6"/>
<path d="M680.907 272.583C680.741 272.532 680.601 272.418 680.519 272.265C680.437 272.111 680.42 271.932 680.47 271.766L683.721 261.046C683.772 260.88 683.886 260.74 684.04 260.658C684.193 260.577 684.372 260.559 684.538 260.609C684.705 260.66 684.844 260.774 684.926 260.927C685.008 261.081 685.026 261.26 684.975 261.426L681.724 272.146C681.673 272.312 681.559 272.452 681.406 272.533C681.253 272.615 681.073 272.633 680.907 272.583Z" fill="#FFA216"/>
</svg>
