<svg width="720" height="720" viewBox="0 0 720 720" fill="none" xmlns="http://www.w3.org/2000/svg">
<path d="M617.021 397.901H33.9797C29.2769 397.896 24.7682 396.018 21.4427 392.68C18.1173 389.342 16.2468 384.816 16.2415 380.095V50.0748H634.759V380.095C634.754 384.816 632.883 389.342 629.558 392.68C626.232 396.018 621.724 397.896 617.021 397.901Z" fill="#E6E6E6"/>
<path d="M616.12 374H35.8804C33.2608 373.997 30.7495 372.959 28.8972 371.115C27.0449 369.27 26.0029 366.768 26 364.16V83.8405C26.0029 81.2315 27.0449 78.7303 28.8972 76.8855C30.7495 75.0406 33.2608 74.0029 35.8804 74H616.12C618.739 74.0029 621.251 75.0406 623.103 76.8854C624.955 78.7302 625.997 81.2315 626 83.8405V364.16C625.997 366.768 624.955 369.27 623.103 371.115C621.251 372.959 618.739 373.997 616.12 374Z" fill="white"/>
<path d="M636 62.1036H15V47.8068C15.0053 43.0858 16.8759 38.5597 20.2013 35.2214C23.5267 31.8831 28.0354 30.0053 32.7383 30H618.262C622.965 30.0053 627.473 31.8831 630.799 35.2214C634.124 38.5597 635.995 43.0858 636 47.8068V62.1036Z" fill="#1C68B6"/>
<rect x="295" y="94" width="211" height="107" rx="6" fill="#EEEEEE"/>
<path d="M323.667 153.36H327.649V151.512H323.667V150.654H327.561V143.856H323.667V142.998H327.891V144.714H329.893C329.739 148.652 329.211 151.798 327.495 154.174C326.219 154.284 324.921 154.394 323.667 154.482V153.36ZM319.575 149.026V148.036H321.291V149.026H319.575ZM325.383 148.036V149.026H323.667V148.036H325.383ZM323.667 146.474V145.506H325.383V146.474H323.667ZM319.575 145.506H321.291V146.474H319.575V145.506ZM332.445 142.316C332.489 140.864 332.489 139.324 332.489 137.718H329.981C329.981 139.346 329.981 140.864 329.959 142.316H327.891V141.106H323.667V140.028C325.097 139.874 326.461 139.676 327.627 139.434L326.483 137.476C324.063 138.004 320.257 138.378 317.001 138.554C317.243 139.06 317.485 139.874 317.573 140.402C318.761 140.38 320.015 140.314 321.291 140.226V141.106H316.957V142.998H321.291V143.856H317.507V150.654H321.291V151.512H317.419V153.36H321.291V154.68C319.597 154.79 318.057 154.9 316.825 154.988L317.133 157.188C319.509 156.99 322.677 156.66 325.845 156.33C326.417 156.814 327.055 157.54 327.385 158.068C331.081 155.142 332.093 150.61 332.379 144.714H334.359C334.227 151.82 334.007 154.504 333.545 155.098C333.347 155.384 333.127 155.472 332.797 155.472C332.379 155.472 331.543 155.45 330.575 155.362C331.015 156.088 331.301 157.144 331.345 157.87C332.401 157.892 333.413 157.914 334.073 157.782C334.799 157.628 335.305 157.408 335.811 156.682C336.515 155.67 336.691 152.48 336.889 143.482C336.889 143.174 336.911 142.316 336.911 142.316H332.445ZM355.765 154.152H342.477V142.58H339.925V157.914H342.477V156.616H355.765V157.892H358.295V142.58H355.765V154.152ZM352.069 146.87H350.155V145.022H352.069V146.87ZM352.069 150.72H350.155V148.85H352.069V150.72ZM345.997 148.85H347.911V150.72H345.997V148.85ZM345.997 145.022H347.911V146.87H345.997V145.022ZM339.265 138.686V141.128H347.713V142.888H343.863V152.854H354.335V142.888H350.331V141.128H358.955V138.686H339.265ZM365.643 137.454C364.543 140.578 362.629 143.702 360.627 145.682C361.089 146.342 361.837 147.838 362.079 148.476C362.519 147.992 362.981 147.442 363.443 146.892V157.892H366.083V142.822C366.897 141.348 367.623 139.786 368.195 138.246L365.643 137.454ZM381.417 143.438V140.952H372.881C373.299 140.05 373.651 139.148 373.959 138.224L371.429 137.586C370.439 140.732 368.701 143.9 366.765 145.88C367.315 146.298 368.349 147.222 368.767 147.706C369.757 146.562 370.769 145.066 371.649 143.438H372.485V157.914H375.169V153.03H381.153V150.61H375.169V148.124H380.867V145.748H375.169V143.438H381.417ZM399.369 144.384C398.841 146.166 398.115 147.794 397.257 149.268C396.883 147.508 396.575 145.44 396.377 143.24H403.175V140.644H400.887L401.943 139.522C401.173 138.796 399.567 137.784 398.357 137.168L396.773 138.73C397.675 139.28 398.775 139.984 399.589 140.644H396.223C396.179 139.566 396.157 138.488 396.179 137.388H393.429C393.429 138.488 393.473 139.566 393.517 140.644H384.541V147.068C384.541 149.928 384.387 153.756 382.715 156.396C383.309 156.704 384.475 157.672 384.937 158.178C386.741 155.494 387.203 151.204 387.291 147.992H390.151C390.085 150.764 389.997 151.82 389.777 152.128C389.601 152.348 389.425 152.392 389.117 152.392C388.765 152.392 388.017 152.37 387.225 152.304C387.621 152.964 387.907 153.976 387.951 154.746C388.963 154.768 389.909 154.768 390.481 154.68C391.141 154.57 391.581 154.372 391.999 153.8C392.505 153.162 392.637 151.204 392.703 146.584C392.703 146.276 392.725 145.594 392.725 145.594H387.291V143.24H393.671C393.957 146.54 394.441 149.62 395.189 152.106C393.913 153.536 392.395 154.746 390.701 155.67C391.251 156.176 392.197 157.254 392.593 157.826C393.957 156.99 395.189 156 396.311 154.834C397.279 156.638 398.489 157.738 400.029 157.738C402.075 157.738 402.955 156.77 403.373 152.7C402.669 152.414 401.745 151.842 401.151 151.226C401.041 153.976 400.777 155.076 400.249 155.076C399.545 155.076 398.841 154.152 398.203 152.568C399.787 150.434 401.085 147.882 401.987 145.022L399.369 144.384ZM421.787 139.874C421.787 139.17 422.359 138.598 423.063 138.598C423.745 138.598 424.317 139.17 424.317 139.874C424.317 140.556 423.745 141.128 423.063 141.128C422.359 141.128 421.787 140.556 421.787 139.874ZM420.423 139.874C420.423 140.028 420.445 140.16 420.467 140.292C420.005 140.358 419.521 140.38 419.213 140.38H409.027C408.301 140.38 407.047 140.292 406.409 140.204V143.306C406.959 143.262 408.015 143.218 409.027 143.218H419.257C418.971 145.11 418.135 147.596 416.683 149.422C414.901 151.666 412.415 153.58 408.059 154.592L410.457 157.232C414.373 155.956 417.321 153.778 419.301 151.138C421.149 148.696 422.095 145.286 422.601 143.13C422.667 142.932 422.711 142.712 422.777 142.47C422.865 142.492 422.975 142.492 423.063 142.492C424.493 142.492 425.681 141.304 425.681 139.874C425.681 138.422 424.493 137.234 423.063 137.234C421.611 137.234 420.423 138.422 420.423 139.874ZM431.005 139.126V141.964C431.643 141.92 432.589 141.898 433.293 141.898H441.719C442.511 141.898 443.545 141.92 444.139 141.964V139.126C443.523 139.214 442.445 139.236 441.763 139.236H433.293C432.545 139.236 431.621 139.214 431.005 139.126ZM445.987 145.506L444.029 144.296C443.721 144.428 443.127 144.516 442.423 144.516H431.533C430.851 144.516 429.905 144.45 428.981 144.384V147.244C429.905 147.156 431.005 147.134 431.533 147.134H442.159C441.763 148.366 441.081 149.73 439.893 150.94C438.221 152.656 435.581 154.108 432.281 154.79L434.459 157.276C437.275 156.484 440.091 154.988 442.313 152.524C443.963 150.698 444.909 148.564 445.569 146.43C445.657 146.188 445.833 145.792 445.987 145.506ZM453.401 139.28L451.333 141.48C452.939 142.602 455.689 145 456.833 146.232L459.077 143.944C457.801 142.602 454.941 140.314 453.401 139.28ZM450.651 153.932L452.499 156.836C455.601 156.308 458.439 155.076 460.661 153.734C464.203 151.6 467.129 148.564 468.801 145.594L467.085 142.492C465.699 145.462 462.839 148.828 459.077 151.05C456.943 152.326 454.083 153.448 450.651 153.932ZM480.325 152.777H474.675L473.601 156H470.174L475.996 140.359H478.982L484.837 156H481.41L480.325 152.777ZM475.545 150.167H479.455L477.489 144.312L475.545 150.167Z" fill="black"/>
<rect x="359" y="250" width="211" height="107" rx="6" fill="#EEEEEE"/>
<path d="M387.871 309.36H391.853V307.512H387.871V306.654H391.765V299.856H387.871V298.998H392.095V300.714H394.097C393.943 304.652 393.415 307.798 391.699 310.174C390.423 310.284 389.125 310.394 387.871 310.482V309.36ZM383.779 305.026V304.036H385.495V305.026H383.779ZM389.587 304.036V305.026H387.871V304.036H389.587ZM387.871 302.474V301.506H389.587V302.474H387.871ZM383.779 301.506H385.495V302.474H383.779V301.506ZM396.649 298.316C396.693 296.864 396.693 295.324 396.693 293.718H394.185C394.185 295.346 394.185 296.864 394.163 298.316H392.095V297.106H387.871V296.028C389.301 295.874 390.665 295.676 391.831 295.434L390.687 293.476C388.267 294.004 384.461 294.378 381.205 294.554C381.447 295.06 381.689 295.874 381.777 296.402C382.965 296.38 384.219 296.314 385.495 296.226V297.106H381.161V298.998H385.495V299.856H381.711V306.654H385.495V307.512H381.623V309.36H385.495V310.68C383.801 310.79 382.261 310.9 381.029 310.988L381.337 313.188C383.713 312.99 386.881 312.66 390.049 312.33C390.621 312.814 391.259 313.54 391.589 314.068C395.285 311.142 396.297 306.61 396.583 300.714H398.563C398.431 307.82 398.211 310.504 397.749 311.098C397.551 311.384 397.331 311.472 397.001 311.472C396.583 311.472 395.747 311.45 394.779 311.362C395.219 312.088 395.505 313.144 395.549 313.87C396.605 313.892 397.617 313.914 398.277 313.782C399.003 313.628 399.509 313.408 400.015 312.682C400.719 311.67 400.895 308.48 401.093 299.482C401.093 299.174 401.115 298.316 401.115 298.316H396.649ZM419.969 310.152H406.681V298.58H404.129V313.914H406.681V312.616H419.969V313.892H422.499V298.58H419.969V310.152ZM416.273 302.87H414.359V301.022H416.273V302.87ZM416.273 306.72H414.359V304.85H416.273V306.72ZM410.201 304.85H412.115V306.72H410.201V304.85ZM410.201 301.022H412.115V302.87H410.201V301.022ZM403.469 294.686V297.128H411.917V298.888H408.067V308.854H418.539V298.888H414.535V297.128H423.159V294.686H403.469ZM429.847 293.454C428.747 296.578 426.833 299.702 424.831 301.682C425.293 302.342 426.041 303.838 426.283 304.476C426.723 303.992 427.185 303.442 427.647 302.892V313.892H430.287V298.822C431.101 297.348 431.827 295.786 432.399 294.246L429.847 293.454ZM445.621 299.438V296.952H437.085C437.503 296.05 437.855 295.148 438.163 294.224L435.633 293.586C434.643 296.732 432.905 299.9 430.969 301.88C431.519 302.298 432.553 303.222 432.971 303.706C433.961 302.562 434.973 301.066 435.853 299.438H436.689V313.914H439.373V309.03H445.357V306.61H439.373V304.124H445.071V301.748H439.373V299.438H445.621ZM463.573 300.384C463.045 302.166 462.319 303.794 461.461 305.268C461.087 303.508 460.779 301.44 460.581 299.24H467.379V296.644H465.091L466.147 295.522C465.377 294.796 463.771 293.784 462.561 293.168L460.977 294.73C461.879 295.28 462.979 295.984 463.793 296.644H460.427C460.383 295.566 460.361 294.488 460.383 293.388H457.633C457.633 294.488 457.677 295.566 457.721 296.644H448.745V303.068C448.745 305.928 448.591 309.756 446.919 312.396C447.513 312.704 448.679 313.672 449.141 314.178C450.945 311.494 451.407 307.204 451.495 303.992H454.355C454.289 306.764 454.201 307.82 453.981 308.128C453.805 308.348 453.629 308.392 453.321 308.392C452.969 308.392 452.221 308.37 451.429 308.304C451.825 308.964 452.111 309.976 452.155 310.746C453.167 310.768 454.113 310.768 454.685 310.68C455.345 310.57 455.785 310.372 456.203 309.8C456.709 309.162 456.841 307.204 456.907 302.584C456.907 302.276 456.929 301.594 456.929 301.594H451.495V299.24H457.875C458.161 302.54 458.645 305.62 459.393 308.106C458.117 309.536 456.599 310.746 454.905 311.67C455.455 312.176 456.401 313.254 456.797 313.826C458.161 312.99 459.393 312 460.515 310.834C461.483 312.638 462.693 313.738 464.233 313.738C466.279 313.738 467.159 312.77 467.577 308.7C466.873 308.414 465.949 307.842 465.355 307.226C465.245 309.976 464.981 311.076 464.453 311.076C463.749 311.076 463.045 310.152 462.407 308.568C463.991 306.434 465.289 303.882 466.191 301.022L463.573 300.384ZM485.991 295.874C485.991 295.17 486.563 294.598 487.267 294.598C487.949 294.598 488.521 295.17 488.521 295.874C488.521 296.556 487.949 297.128 487.267 297.128C486.563 297.128 485.991 296.556 485.991 295.874ZM484.627 295.874C484.627 296.028 484.649 296.16 484.671 296.292C484.209 296.358 483.725 296.38 483.417 296.38H473.231C472.505 296.38 471.251 296.292 470.613 296.204V299.306C471.163 299.262 472.219 299.218 473.231 299.218H483.461C483.175 301.11 482.339 303.596 480.887 305.422C479.105 307.666 476.619 309.58 472.263 310.592L474.661 313.232C478.577 311.956 481.525 309.778 483.505 307.138C485.353 304.696 486.299 301.286 486.805 299.13C486.871 298.932 486.915 298.712 486.981 298.47C487.069 298.492 487.179 298.492 487.267 298.492C488.697 298.492 489.885 297.304 489.885 295.874C489.885 294.422 488.697 293.234 487.267 293.234C485.815 293.234 484.627 294.422 484.627 295.874ZM495.209 295.126V297.964C495.847 297.92 496.793 297.898 497.497 297.898H505.923C506.715 297.898 507.749 297.92 508.343 297.964V295.126C507.727 295.214 506.649 295.236 505.967 295.236H497.497C496.749 295.236 495.825 295.214 495.209 295.126ZM510.191 301.506L508.233 300.296C507.925 300.428 507.331 300.516 506.627 300.516H495.737C495.055 300.516 494.109 300.45 493.185 300.384V303.244C494.109 303.156 495.209 303.134 495.737 303.134H506.363C505.967 304.366 505.285 305.73 504.097 306.94C502.425 308.656 499.785 310.108 496.485 310.79L498.663 313.276C501.479 312.484 504.295 310.988 506.517 308.524C508.167 306.698 509.113 304.564 509.773 302.43C509.861 302.188 510.037 301.792 510.191 301.506ZM517.605 295.28L515.537 297.48C517.143 298.602 519.893 301 521.037 302.232L523.281 299.944C522.005 298.602 519.145 296.314 517.605 295.28ZM514.855 309.932L516.703 312.836C519.805 312.308 522.643 311.076 524.865 309.734C528.407 307.6 531.333 304.564 533.005 301.594L531.289 298.492C529.903 301.462 527.043 304.828 523.281 307.05C521.147 308.326 518.287 309.448 514.855 309.932ZM547.978 306.79C547.856 308.473 547.233 309.798 546.108 310.765C544.991 311.731 543.516 312.215 541.683 312.215C539.677 312.215 538.098 311.542 536.945 310.195C535.799 308.842 535.227 306.987 535.227 304.631V303.675C535.227 302.171 535.492 300.846 536.021 299.7C536.551 298.554 537.307 297.677 538.288 297.068C539.276 296.452 540.422 296.145 541.726 296.145C543.53 296.145 544.984 296.628 546.087 297.595C547.19 298.562 547.827 299.919 547.999 301.666H544.776C544.698 300.656 544.415 299.926 543.928 299.475C543.448 299.016 542.714 298.787 541.726 298.787C540.651 298.787 539.846 299.174 539.309 299.947C538.779 300.714 538.507 301.906 538.492 303.524V304.706C538.492 306.396 538.746 307.632 539.255 308.412C539.771 309.193 540.58 309.583 541.683 309.583C542.678 309.583 543.419 309.357 543.906 308.906C544.4 308.448 544.683 307.743 544.755 306.79H547.978Z" fill="black"/>
<rect x="56" y="201" width="211" height="107" rx="6" fill="#EEEEEE"/>
<path d="M85.0426 260.36H89.0246V258.512H85.0426V257.654H88.9366V250.856H85.0426V249.998H89.2666V251.714H91.2686C91.1146 255.652 90.5866 258.798 88.8706 261.174C87.5946 261.284 86.2966 261.394 85.0426 261.482V260.36ZM80.9506 256.026V255.036H82.6666V256.026H80.9506ZM86.7586 255.036V256.026H85.0426V255.036H86.7586ZM85.0426 253.474V252.506H86.7586V253.474H85.0426ZM80.9506 252.506H82.6666V253.474H80.9506V252.506ZM93.8206 249.316C93.8646 247.864 93.8646 246.324 93.8646 244.718H91.3566C91.3566 246.346 91.3566 247.864 91.3346 249.316H89.2666V248.106H85.0426V247.028C86.4726 246.874 87.8366 246.676 89.0026 246.434L87.8586 244.476C85.4386 245.004 81.6326 245.378 78.3766 245.554C78.6186 246.06 78.8606 246.874 78.9486 247.402C80.1366 247.38 81.3906 247.314 82.6666 247.226V248.106H78.3326V249.998H82.6666V250.856H78.8826V257.654H82.6666V258.512H78.7946V260.36H82.6666V261.68C80.9726 261.79 79.4326 261.9 78.2006 261.988L78.5086 264.188C80.8846 263.99 84.0526 263.66 87.2206 263.33C87.7926 263.814 88.4306 264.54 88.7606 265.068C92.4566 262.142 93.4686 257.61 93.7546 251.714H95.7346C95.6026 258.82 95.3826 261.504 94.9206 262.098C94.7226 262.384 94.5026 262.472 94.1726 262.472C93.7546 262.472 92.9186 262.45 91.9506 262.362C92.3906 263.088 92.6766 264.144 92.7206 264.87C93.7766 264.892 94.7886 264.914 95.4486 264.782C96.1746 264.628 96.6806 264.408 97.1866 263.682C97.8906 262.67 98.0666 259.48 98.2646 250.482C98.2646 250.174 98.2866 249.316 98.2866 249.316H93.8206ZM117.141 261.152H103.853V249.58H101.301V264.914H103.853V263.616H117.141V264.892H119.671V249.58H117.141V261.152ZM113.445 253.87H111.531V252.022H113.445V253.87ZM113.445 257.72H111.531V255.85H113.445V257.72ZM107.373 255.85H109.287V257.72H107.373V255.85ZM107.373 252.022H109.287V253.87H107.373V252.022ZM100.641 245.686V248.128H109.089V249.888H105.239V259.854H115.711V249.888H111.707V248.128H120.331V245.686H100.641ZM127.019 244.454C125.919 247.578 124.005 250.702 122.003 252.682C122.465 253.342 123.213 254.838 123.455 255.476C123.895 254.992 124.357 254.442 124.819 253.892V264.892H127.459V249.822C128.273 248.348 128.999 246.786 129.571 245.246L127.019 244.454ZM142.793 250.438V247.952H134.257C134.675 247.05 135.027 246.148 135.335 245.224L132.805 244.586C131.815 247.732 130.077 250.9 128.141 252.88C128.691 253.298 129.725 254.222 130.143 254.706C131.133 253.562 132.145 252.066 133.025 250.438H133.861V264.914H136.545V260.03H142.529V257.61H136.545V255.124H142.243V252.748H136.545V250.438H142.793ZM160.745 251.384C160.217 253.166 159.491 254.794 158.633 256.268C158.259 254.508 157.951 252.44 157.753 250.24H164.551V247.644H162.263L163.319 246.522C162.549 245.796 160.943 244.784 159.733 244.168L158.149 245.73C159.051 246.28 160.151 246.984 160.965 247.644H157.599C157.555 246.566 157.533 245.488 157.555 244.388H154.805C154.805 245.488 154.849 246.566 154.893 247.644H145.917V254.068C145.917 256.928 145.763 260.756 144.091 263.396C144.685 263.704 145.851 264.672 146.313 265.178C148.117 262.494 148.579 258.204 148.667 254.992H151.527C151.461 257.764 151.373 258.82 151.153 259.128C150.977 259.348 150.801 259.392 150.493 259.392C150.141 259.392 149.393 259.37 148.601 259.304C148.997 259.964 149.283 260.976 149.327 261.746C150.339 261.768 151.285 261.768 151.857 261.68C152.517 261.57 152.957 261.372 153.375 260.8C153.881 260.162 154.013 258.204 154.079 253.584C154.079 253.276 154.101 252.594 154.101 252.594H148.667V250.24H155.047C155.333 253.54 155.817 256.62 156.565 259.106C155.289 260.536 153.771 261.746 152.077 262.67C152.627 263.176 153.573 264.254 153.969 264.826C155.333 263.99 156.565 263 157.687 261.834C158.655 263.638 159.865 264.738 161.405 264.738C163.451 264.738 164.331 263.77 164.749 259.7C164.045 259.414 163.121 258.842 162.527 258.226C162.417 260.976 162.153 262.076 161.625 262.076C160.921 262.076 160.217 261.152 159.579 259.568C161.163 257.434 162.461 254.882 163.363 252.022L160.745 251.384ZM183.163 246.874C183.163 246.17 183.735 245.598 184.439 245.598C185.121 245.598 185.693 246.17 185.693 246.874C185.693 247.556 185.121 248.128 184.439 248.128C183.735 248.128 183.163 247.556 183.163 246.874ZM181.799 246.874C181.799 247.028 181.821 247.16 181.843 247.292C181.381 247.358 180.897 247.38 180.589 247.38H170.403C169.677 247.38 168.423 247.292 167.785 247.204V250.306C168.335 250.262 169.391 250.218 170.403 250.218H180.633C180.347 252.11 179.511 254.596 178.059 256.422C176.277 258.666 173.791 260.58 169.435 261.592L171.833 264.232C175.749 262.956 178.697 260.778 180.677 258.138C182.525 255.696 183.471 252.286 183.977 250.13C184.043 249.932 184.087 249.712 184.153 249.47C184.241 249.492 184.351 249.492 184.439 249.492C185.869 249.492 187.057 248.304 187.057 246.874C187.057 245.422 185.869 244.234 184.439 244.234C182.987 244.234 181.799 245.422 181.799 246.874ZM192.381 246.126V248.964C193.019 248.92 193.965 248.898 194.669 248.898H203.095C203.887 248.898 204.921 248.92 205.515 248.964V246.126C204.899 246.214 203.821 246.236 203.139 246.236H194.669C193.921 246.236 192.997 246.214 192.381 246.126ZM207.363 252.506L205.405 251.296C205.097 251.428 204.503 251.516 203.799 251.516H192.909C192.227 251.516 191.281 251.45 190.357 251.384V254.244C191.281 254.156 192.381 254.134 192.909 254.134H203.535C203.139 255.366 202.457 256.73 201.269 257.94C199.597 259.656 196.957 261.108 193.657 261.79L195.835 264.276C198.651 263.484 201.467 261.988 203.689 259.524C205.339 257.698 206.285 255.564 206.945 253.43C207.033 253.188 207.209 252.792 207.363 252.506ZM214.777 246.28L212.709 248.48C214.315 249.602 217.065 252 218.209 253.232L220.453 250.944C219.177 249.602 216.317 247.314 214.777 246.28ZM212.027 260.932L213.875 263.836C216.977 263.308 219.815 262.076 222.037 260.734C225.579 258.6 228.505 255.564 230.177 252.594L228.461 249.492C227.075 252.462 224.215 255.828 220.453 258.05C218.319 259.326 215.459 260.448 212.027 260.932ZM232.871 263V247.359H238.35C240.247 247.359 241.687 247.725 242.668 248.455C243.649 249.178 244.14 250.242 244.14 251.646C244.14 252.412 243.943 253.089 243.549 253.676C243.155 254.256 242.607 254.682 241.905 254.954C242.707 255.155 243.338 255.559 243.796 256.168C244.261 256.777 244.494 257.521 244.494 258.402C244.494 259.906 244.014 261.045 243.055 261.818C242.095 262.592 240.727 262.986 238.951 263H232.871ZM236.094 256.189V260.411H238.854C239.614 260.411 240.204 260.232 240.627 259.874C241.057 259.509 241.271 259.007 241.271 258.37C241.271 256.938 240.53 256.211 239.048 256.189H236.094ZM236.094 253.912H238.479C240.104 253.883 240.917 253.235 240.917 251.968C240.917 251.259 240.709 250.75 240.294 250.442C239.886 250.127 239.238 249.97 238.35 249.97H236.094V253.912Z" fill="black"/>
<path d="M571.967 674.069H559.707L553.875 626.781H571.969L571.967 674.069Z" fill="#A0616A"/>
<path d="M550.95 670.566H574.594V685.453H536.063C536.063 683.498 536.448 681.562 537.196 679.756C537.945 677.95 539.041 676.309 540.423 674.926C541.806 673.544 543.447 672.448 545.253 671.699C547.059 670.951 548.995 670.566 550.95 670.566Z" fill="#2F2E41"/>
<path d="M622.967 674.069H610.707L604.875 626.781H622.969L622.967 674.069Z" fill="#A0616A"/>
<path d="M601.95 670.566H625.594V685.453H587.063C587.063 683.498 587.448 681.562 588.196 679.756C588.945 677.95 590.041 676.309 591.423 674.926C592.806 673.544 594.447 672.448 596.253 671.699C598.059 670.951 599.995 670.566 601.95 670.566Z" fill="#2F2E41"/>
<path d="M621.406 663.201H608.926C607.799 663.195 606.714 662.769 605.885 662.005C605.055 661.242 604.541 660.196 604.441 659.073L593.866 531.675C593.835 531.304 593.667 530.959 593.396 530.705C593.125 530.451 592.769 530.306 592.397 530.3C592.026 530.293 591.665 530.425 591.385 530.669C591.105 530.913 590.925 531.253 590.881 531.622L575.692 659.233C575.561 660.327 575.035 661.334 574.211 662.066C573.388 662.797 572.325 663.201 571.224 663.201H555.9C554.711 663.199 553.572 662.728 552.729 661.89C551.887 661.051 551.41 659.914 551.402 658.726C551.368 650.71 551.314 642.636 551.259 634.561C550.773 562.639 550.27 488.269 565.287 459.133L565.424 458.867L619.617 457.941L619.753 458.238C636.149 494.068 631.172 574.113 626.36 651.522L625.897 658.981C625.824 660.123 625.319 661.195 624.485 661.979C623.651 662.762 622.55 663.2 621.406 663.201Z" fill="#2F2E41"/>
<path d="M595.733 362.183C609.297 362.183 620.294 351.187 620.294 337.622C620.294 324.057 609.297 313.061 595.733 313.061C582.168 313.061 571.172 324.057 571.172 337.622C571.172 351.187 582.168 362.183 595.733 362.183Z" fill="#A0616A"/>
<path d="M562.247 463.382L562.924 435.222L558.052 413.25C556.821 407.809 556.893 402.155 558.262 396.748C559.63 391.34 562.257 386.332 565.927 382.132C569.498 377.953 574.007 374.677 579.084 372.571C584.162 370.466 589.666 369.591 595.147 370.017C595.5 370.044 595.855 370.074 596.211 370.106C600.894 370.527 605.443 371.887 609.589 374.105C613.735 376.322 617.392 379.352 620.342 383.013C623.354 386.694 625.593 390.945 626.927 395.51C628.261 400.076 628.662 404.863 628.106 409.587L622.212 461.104L562.247 463.382Z" fill="#1C68B6"/>
<path d="M541.384 513.852C542.543 512.947 543.489 511.799 544.156 510.489C544.823 509.179 545.195 507.739 545.245 506.27C545.295 504.8 545.023 503.338 544.447 501.985C543.871 500.633 543.005 499.423 541.911 498.441L555.739 465.491L537.489 468.918L527.155 499.683C525.628 501.631 524.868 504.071 525.019 506.541C525.17 509.012 526.223 511.341 527.976 513.087C529.73 514.834 532.064 515.876 534.535 516.017C537.006 516.158 539.443 515.387 541.384 513.852Z" fill="#A0616A"/>
<path d="M645.727 517.801C644.622 516.832 643.743 515.632 643.151 514.286C642.559 512.941 642.27 511.481 642.304 510.012C642.337 508.542 642.692 507.098 643.344 505.78C643.996 504.462 644.929 503.304 646.078 502.386L634.146 468.702L652.172 473.162L660.739 504.465C662.153 506.497 662.773 508.976 662.482 511.434C662.19 513.892 661.007 516.157 659.156 517.801C657.306 519.445 654.917 520.353 652.442 520.353C649.967 520.353 647.578 519.445 645.727 517.801Z" fill="#A0616A"/>
<path d="M543.579 497.705C542.945 497.705 542.318 497.571 541.74 497.313L531.219 492.6C530.207 492.148 529.398 491.338 528.946 490.325C528.495 489.313 528.434 488.169 528.775 487.114L546.423 432.295L553.243 390.995C553.485 389.528 554.02 388.124 554.816 386.868C555.612 385.611 556.653 384.528 557.876 383.682C559.099 382.835 560.48 382.244 561.937 381.942C563.393 381.641 564.895 381.635 566.354 381.926C567.812 382.217 569.198 382.798 570.427 383.635C571.657 384.473 572.705 385.548 573.51 386.799C574.315 388.049 574.861 389.449 575.114 390.915C575.367 392.38 575.323 393.882 574.984 395.33L564.619 439.622L547.884 494.518C547.603 495.44 547.033 496.248 546.258 496.822C545.483 497.396 544.544 497.706 543.579 497.705V497.705Z" fill="#1C68B6"/>
<path d="M643.941 497.705C642.977 497.706 642.038 497.396 641.262 496.822C640.487 496.248 639.917 495.44 639.636 494.518L622.91 439.653L612.536 395.33C612.197 393.882 612.153 392.38 612.406 390.915C612.659 389.449 613.205 388.049 614.01 386.799C614.815 385.548 615.864 384.472 617.093 383.635C618.322 382.798 619.708 382.217 621.166 381.926C622.625 381.635 624.127 381.641 625.584 381.942C627.04 382.244 628.421 382.835 629.644 383.681C630.868 384.527 631.908 385.611 632.704 386.867C633.5 388.124 634.035 389.528 634.277 390.995L641.115 432.367L658.746 487.114C659.086 488.169 659.025 489.313 658.574 490.325C658.123 491.338 657.313 492.148 656.301 492.6L645.78 497.313C645.202 497.571 644.575 497.705 643.941 497.705Z" fill="#1C68B6"/>
<path d="M596.238 310.473C589.412 307.516 580.495 311.195 577.74 318.105C576.025 322.406 576.548 327.256 577.494 331.788C578.439 336.321 579.787 340.843 579.642 345.471C579.497 350.098 577.504 355.01 573.399 357.15C570.946 358.429 568.077 358.572 565.418 359.335C562.759 360.097 560.014 361.881 559.632 364.621C559.052 368.765 564.08 371.922 564.046 376.107C564.01 380.54 558.469 383.174 557.751 387.549C557.628 388.83 557.831 390.122 558.344 391.302C558.856 392.483 559.66 393.514 560.68 394.299C562.738 395.844 565.076 396.976 567.564 397.632C586.713 403.752 607.1 404.914 626.82 401.008C630.738 400.226 634.771 399.17 637.815 396.582C640.86 393.995 642.601 389.466 640.851 385.874C638.228 380.489 629.898 380.182 626.995 374.943C625.254 371.8 626.055 367.942 626.422 364.367C627.369 355.137 629.553 344.354 627.26 335.362C625.188 327.239 620.69 316.742 614.26 311.362C609.647 307.502 600.839 309.261 594.942 310.452L596.238 310.473Z" fill="#2F2E41"/>
<path d="M657.246 315.675L655.802 315.431C654.509 315.211 653.356 314.487 652.596 313.418C651.836 312.348 651.531 311.021 651.748 309.727L651.953 308.515C652.461 305.513 653.454 303.095 654.907 301.329C656.652 299.284 658.598 297.42 660.718 295.767C662.107 294.774 663.404 293.657 664.593 292.431C665.46 291.469 666.026 290.273 666.221 288.993C666.73 285.981 665.015 284.185 660.978 283.502C658.734 283.149 656.453 283.107 654.198 283.377C653.329 283.473 652.45 283.367 651.63 283.066C650.81 282.765 650.071 282.278 649.471 281.643C648.871 281.007 648.426 280.242 648.172 279.406C647.919 278.57 647.862 277.686 648.008 276.825L648.423 274.371C648.597 273.313 649.073 272.329 649.795 271.538C650.517 270.746 651.453 270.181 652.49 269.91C656.557 268.933 660.785 268.82 664.899 269.578C669.219 270.309 672.997 271.694 676.127 273.695C679.263 275.7 681.59 278.174 683.043 281.048C684.494 283.902 684.972 287.153 684.405 290.304C683.832 293.694 682.407 296.491 680.17 298.616C677.957 300.719 674.923 302.918 671.152 305.153C669.17 306.304 667.26 307.578 665.435 308.965C664.254 309.872 663.326 311.067 662.739 312.436C662.355 313.538 661.592 314.469 660.586 315.062C659.58 315.655 658.397 315.872 657.246 315.675Z" fill="#1C68B6"/>
<path d="M652.564 338.483L652.374 338.451C649.977 338.044 647.84 336.702 646.432 334.72C645.024 332.738 644.461 330.278 644.866 327.881C645.271 325.483 646.612 323.345 648.593 321.936C650.574 320.527 653.034 319.962 655.431 320.366L655.622 320.398C656.81 320.598 657.947 321.03 658.968 321.67C659.989 322.31 660.874 323.144 661.572 324.126C662.27 325.108 662.768 326.218 663.038 327.392C663.307 328.566 663.342 329.782 663.141 330.97C662.94 332.158 662.507 333.295 661.867 334.315C661.227 335.336 660.392 336.22 659.409 336.918C658.427 337.616 657.317 338.113 656.143 338.382C654.968 338.65 653.752 338.684 652.564 338.483Z" fill="#1C68B6"/>
<path d="M679.639 344.929L678.962 344.336C678.356 343.803 677.985 343.052 677.932 342.247C677.879 341.442 678.148 340.649 678.679 340.042L679.177 339.473C680.411 338.065 681.712 337.119 683.042 336.663C684.615 336.155 686.235 335.808 687.878 335.626C688.926 335.554 689.965 335.387 690.983 335.129C691.747 334.905 692.429 334.461 692.944 333.853C694.182 332.441 693.864 330.947 691.97 329.288C690.909 328.379 689.728 327.621 688.46 327.035C687.975 326.806 687.549 326.466 687.216 326.044C686.884 325.622 686.654 325.129 686.545 324.603C686.436 324.077 686.45 323.532 686.587 323.013C686.723 322.493 686.979 322.012 687.333 321.608L688.342 320.457C688.774 319.96 689.341 319.598 689.974 319.417C690.607 319.235 691.28 319.241 691.91 319.434C694.355 320.234 696.605 321.538 698.514 323.262C700.541 325.038 702.072 326.982 703.065 329.039C704.06 331.101 704.48 333.146 704.315 335.12C704.154 337.082 703.355 338.938 702.042 340.405C700.648 341.996 699 343 697.144 343.391C695.307 343.779 693.009 343.952 690.314 343.905C688.904 343.869 687.494 343.92 686.091 344.057C685.18 344.151 684.309 344.478 683.56 345.005C683.003 345.458 682.303 345.699 681.586 345.686C680.868 345.672 680.178 345.404 679.639 344.929Z" fill="#1C68B6"/>
<path d="M669.831 355.361L669.742 355.282C668.618 354.296 667.932 352.904 667.834 351.412C667.736 349.921 668.235 348.451 669.22 347.327C670.206 346.202 671.597 345.515 673.089 345.416C674.581 345.317 676.051 345.815 677.176 346.8L677.265 346.878C677.823 347.366 678.279 347.959 678.607 348.623C678.935 349.287 679.129 350.01 679.178 350.749C679.227 351.488 679.13 352.23 678.892 352.932C678.654 353.633 678.281 354.281 677.792 354.839C677.304 355.396 676.711 355.851 676.046 356.179C675.382 356.507 674.659 356.701 673.92 356.749C673.181 356.798 672.439 356.7 671.737 356.462C671.036 356.224 670.388 355.849 669.831 355.361Z" fill="#1C68B6"/>
<path d="M681.463 687.058H331.463C331.198 687.058 330.943 686.953 330.756 686.765C330.568 686.578 330.463 686.323 330.463 686.058C330.463 685.793 330.568 685.539 330.756 685.351C330.943 685.163 331.198 685.058 331.463 685.058H681.463C681.728 685.058 681.982 685.163 682.17 685.351C682.358 685.539 682.463 685.793 682.463 686.058C682.463 686.323 682.358 686.578 682.17 686.765C681.982 686.953 681.728 687.058 681.463 687.058Z" fill="#CCCCCC"/>
</svg>
