<svg xmlns="http://www.w3.org/2000/svg" xmlns:xlink="http://www.w3.org/1999/xlink" viewBox="0 0 2016.37 1282.81"><defs><style>.cls-1{isolation:isolate;}.cls-2{fill:#6165d7;opacity:0.19;}.cls-100,.cls-11,.cls-2,.cls-46,.cls-47,.cls-49,.cls-54,.cls-64,.cls-73,.cls-87{mix-blend-mode:multiply;}.cls-3{fill:url(#linear-gradient);}.cls-4{fill:url(#linear-gradient-2);}.cls-5{fill:url(#linear-gradient-3);}.cls-6{fill:url(#linear-gradient-4);}.cls-7{fill:url(#linear-gradient-5);}.cls-8{fill:url(#linear-gradient-6);}.cls-9{fill:url(#linear-gradient-7);}.cls-10{fill:url(#linear-gradient-8);}.cls-100,.cls-11,.cls-46,.cls-49,.cls-64,.cls-73,.cls-80,.cls-87{opacity:0.3;}.cls-11{fill:url(#linear-gradient-9);}.cls-12{fill:url(#linear-gradient-10);}.cls-13{fill:url(#linear-gradient-11);}.cls-14{fill:url(#linear-gradient-12);}.cls-15{fill:url(#linear-gradient-13);}.cls-16{fill:url(#linear-gradient-14);}.cls-17{fill:url(#linear-gradient-15);}.cls-18,.cls-27{fill:#fff;}.cls-18,.cls-28{opacity:0.68;}.cls-19{fill:url(#linear-gradient-16);}.cls-20{fill:url(#linear-gradient-17);}.cls-21{fill:url(#linear-gradient-18);}.cls-22{fill:url(#linear-gradient-19);}.cls-23{fill:url(#linear-gradient-20);}.cls-24{fill:url(#linear-gradient-21);}.cls-25{fill:url(#linear-gradient-22);}.cls-26{fill:url(#linear-gradient-23);}.cls-29{fill:url(#linear-gradient-24);}.cls-30{fill:url(#linear-gradient-25);}.cls-31{fill:url(#linear-gradient-26);}.cls-32{fill:#a9b4c4;}.cls-33{fill:#bfc8d6;}.cls-34{fill:url(#linear-gradient-27);}.cls-35{fill:#eff2f6;}.cls-36,.cls-89{fill:#d8dee8;}.cls-37{fill:url(#linear-gradient-28);}.cls-38{fill:url(#linear-gradient-29);}.cls-39{fill:url(#linear-gradient-30);}.cls-40{fill:url(#linear-gradient-31);}.cls-41{fill:url(#linear-gradient-32);}.cls-42{fill:url(#linear-gradient-33);}.cls-43{fill:url(#linear-gradient-34);}.cls-44{fill:url(#linear-gradient-35);}.cls-45{fill:url(#linear-gradient-36);}.cls-46{fill:url(#linear-gradient-37);}.cls-47{opacity:0.15;fill:url(#linear-gradient-38);}.cls-48{fill:url(#linear-gradient-39);}.cls-50{fill:url(#linear-gradient-40);}.cls-51{fill:url(#linear-gradient-41);}.cls-52{fill:url(#linear-gradient-42);}.cls-53{fill:url(#linear-gradient-43);}.cls-54{opacity:0.36;fill:url(#linear-gradient-44);}.cls-55{fill:url(#linear-gradient-45);}.cls-56{fill:url(#linear-gradient-46);}.cls-57{fill:url(#linear-gradient-47);}.cls-58{fill:url(#linear-gradient-48);}.cls-59{fill:url(#linear-gradient-49);}.cls-60{fill:url(#linear-gradient-50);}.cls-61{fill:url(#linear-gradient-51);}.cls-62{fill:url(#linear-gradient-52);}.cls-63{fill:url(#linear-gradient-53);}.cls-64{fill:url(#linear-gradient-54);}.cls-65{fill:url(#linear-gradient-55);}.cls-66{fill:url(#linear-gradient-56);}.cls-67{fill:url(#linear-gradient-57);}.cls-68{fill:url(#linear-gradient-58);}.cls-69{fill:url(#linear-gradient-59);}.cls-70{fill:url(#linear-gradient-60);}.cls-71{fill:url(#linear-gradient-61);}.cls-72{fill:url(#linear-gradient-62);}.cls-73{fill:url(#linear-gradient-63);}.cls-74{fill:url(#linear-gradient-64);}.cls-75{fill:url(#linear-gradient-65);}.cls-76{fill:url(#linear-gradient-66);}.cls-77{fill:url(#linear-gradient-67);}.cls-78{fill:url(#linear-gradient-68);}.cls-79{fill:url(#linear-gradient-69);}.cls-80{fill:#f4f7fa;mix-blend-mode:soft-light;}.cls-81{fill:url(#linear-gradient-70);}.cls-82{fill:url(#linear-gradient-71);}.cls-83{fill:url(#linear-gradient-72);}.cls-84{fill:url(#linear-gradient-73);}.cls-85{fill:url(#linear-gradient-74);}.cls-86{fill:url(#linear-gradient-75);}.cls-87{fill:url(#linear-gradient-76);}.cls-88{fill:url(#linear-gradient-77);}.cls-89{opacity:0.54;}.cls-90{fill:url(#linear-gradient-78);}.cls-91{fill:url(#linear-gradient-79);}.cls-92{fill:url(#linear-gradient-80);}.cls-93{fill:url(#linear-gradient-81);}.cls-94{fill:url(#linear-gradient-82);}.cls-95{fill:url(#linear-gradient-83);}.cls-96{fill:url(#linear-gradient-84);}.cls-97{fill:url(#linear-gradient-85);}.cls-98{fill:url(#linear-gradient-86);}.cls-99{fill:url(#linear-gradient-87);}.cls-100{fill:url(#linear-gradient-88);}.cls-101{fill:url(#linear-gradient-89);}.cls-102{fill:url(#linear-gradient-90);}.cls-103{fill:url(#linear-gradient-91);}.cls-104{fill:url(#linear-gradient-92);}.cls-105{fill:url(#linear-gradient-93);}.cls-106{fill:url(#linear-gradient-94);}.cls-107{fill:url(#linear-gradient-95);}.cls-108{fill:url(#linear-gradient-96);}.cls-109{fill:url(#linear-gradient-97);}.cls-110{fill:url(#linear-gradient-98);}.cls-111{fill:url(#linear-gradient-99);}.cls-112{fill:url(#linear-gradient-100);}.cls-113{fill:url(#linear-gradient-101);}.cls-114{fill:url(#linear-gradient-102);}.cls-115{fill:url(#linear-gradient-103);}.cls-116{fill:#26264f;}.cls-117{fill:url(#linear-gradient-104);}.cls-118{fill:#9b305e;}.cls-119{fill:url(#linear-gradient-105);}</style><linearGradient id="linear-gradient" x1="560.82" y1="823.85" x2="234.91" y2="531.2" gradientUnits="userSpaceOnUse"><stop offset="0" stop-color="#f36f56"/><stop offset="1" stop-color="#ffc444"/></linearGradient><linearGradient id="linear-gradient-2" x1="564.7" y1="823.85" x2="238.79" y2="531.2" gradientUnits="userSpaceOnUse"><stop offset="0" stop-color="#ffc444"/><stop offset="1" stop-color="#f36f56"/></linearGradient><linearGradient id="linear-gradient-3" x1="418.3" y1="704.48" x2="223.2" y2="491.64" gradientUnits="userSpaceOnUse"><stop offset="0" stop-color="#444b8c"/><stop offset="1" stop-color="#26264f"/></linearGradient><linearGradient id="linear-gradient-4" x1="279.73" y1="465.36" x2="438.32" y2="935.77" gradientUnits="userSpaceOnUse"><stop offset="0" stop-color="#26264f"/><stop offset="1" stop-color="#444b8c"/></linearGradient><linearGradient id="linear-gradient-5" x1="298.69" y1="439.2" x2="487.68" y2="999.8" xlink:href="#linear-gradient-3"/><linearGradient id="linear-gradient-6" x1="308.84" y1="465.36" x2="467.42" y2="935.77" xlink:href="#linear-gradient-4"/><linearGradient id="linear-gradient-7" x1="256.32" y1="347.97" x2="551.41" y2="1223.3" xlink:href="#linear-gradient"/><linearGradient id="linear-gradient-8" x1="261.49" y1="347.97" x2="556.59" y2="1223.3" xlink:href="#linear-gradient-2"/><linearGradient id="linear-gradient-9" x1="185.99" y1="373.42" x2="481.11" y2="1248.81" xlink:href="#linear-gradient-2"/><linearGradient id="linear-gradient-10" x1="527.6" y1="428.25" x2="725.66" y2="407.56" xlink:href="#linear-gradient-4"/><linearGradient id="linear-gradient-11" x1="951.66" y1="1009.23" x2="992.68" y2="950.48" xlink:href="#linear-gradient-3"/><linearGradient id="linear-gradient-12" x1="1076.36" y1="991.48" x2="1014.29" y2="654.49" xlink:href="#linear-gradient-3"/><linearGradient id="linear-gradient-13" x1="1230.97" y1="61.27" x2="1545.79" y2="-388.05" xlink:href="#linear-gradient-3"/><linearGradient id="linear-gradient-14" x1="1093.17" y1="117.17" x2="702.97" y2="1356.5" xlink:href="#linear-gradient-3"/><linearGradient id="linear-gradient-15" x1="1284.78" y1="-93.49" x2="352.94" y2="1449.56" gradientUnits="userSpaceOnUse"><stop offset="0" stop-color="#ff9085"/><stop offset="1" stop-color="#fb6fbb"/></linearGradient><linearGradient id="linear-gradient-16" x1="1017.77" y1="108.37" x2="995.61" y2="291.78" xlink:href="#linear-gradient-3"/><linearGradient id="linear-gradient-17" x1="1498.52" y1="13.21" x2="1454.27" y2="106.91" xlink:href="#linear-gradient-15"/><linearGradient id="linear-gradient-18" x1="1517.18" y1="22.73" x2="1473.08" y2="116.12" xlink:href="#linear-gradient-15"/><linearGradient id="linear-gradient-19" x1="1535.74" y1="32.18" x2="1491.79" y2="125.26" xlink:href="#linear-gradient-15"/><linearGradient id="linear-gradient-20" x1="1004.52" y1="229.81" x2="616.08" y2="837.73" xlink:href="#linear-gradient-2"/><linearGradient id="linear-gradient-21" x1="980.21" y1="452.69" x2="731.99" y2="841.16" xlink:href="#linear-gradient-3"/><linearGradient id="linear-gradient-22" x1="978.82" y1="268.04" x2="779.26" y2="652.09" xlink:href="#linear-gradient-3"/><linearGradient id="linear-gradient-23" x1="646.97" y1="453.76" x2="644.19" y2="726.72" xlink:href="#linear-gradient-2"/><linearGradient id="linear-gradient-24" x1="1410.36" y1="221.18" x2="1455.47" y2="221.18" xlink:href="#linear-gradient-2"/><linearGradient id="linear-gradient-25" x1="1410.36" y1="386.99" x2="1455.47" y2="386.99" xlink:href="#linear-gradient-2"/><linearGradient id="linear-gradient-26" x1="1410.36" y1="552.79" x2="1455.47" y2="552.79" xlink:href="#linear-gradient-2"/><linearGradient id="linear-gradient-27" x1="1546.42" y1="1017.62" x2="1674.96" y2="643.67" gradientUnits="userSpaceOnUse"><stop offset="0.49" stop-color="#ebeff2"/><stop offset="1" stop-color="#fff"/></linearGradient><linearGradient id="linear-gradient-28" x1="1000.55" y1="1053.6" x2="1004.93" y2="1132.4" xlink:href="#linear-gradient-3"/><linearGradient id="linear-gradient-29" x1="1008.82" y1="1092.44" x2="1006.49" y2="986.04" xlink:href="#linear-gradient-2"/><linearGradient id="linear-gradient-30" x1="1079.78" y1="1049.2" x2="1084.16" y2="1128" xlink:href="#linear-gradient-3"/><linearGradient id="linear-gradient-31" x1="1078.58" y1="1090.91" x2="1076.25" y2="984.52" xlink:href="#linear-gradient-2"/><linearGradient id="linear-gradient-32" x1="975.04" y1="1023.29" x2="1019.22" y2="963.98" gradientUnits="userSpaceOnUse"><stop offset="0" stop-color="#311944"/><stop offset="1" stop-color="#6b3976"/></linearGradient><linearGradient id="linear-gradient-33" x1="389.71" y1="709.19" x2="405.75" y2="807.3" gradientTransform="translate(378.03 193.66) rotate(-11.19)" xlink:href="#linear-gradient-2"/><linearGradient id="linear-gradient-34" x1="1007.86" y1="1030.64" x2="1111.35" y2="934.13" xlink:href="#linear-gradient-32"/><linearGradient id="linear-gradient-35" x1="905.57" y1="811.75" x2="988.57" y2="811.75" gradientUnits="userSpaceOnUse"><stop offset="0" stop-color="#aa80f9"/><stop offset="1" stop-color="#6165d7"/></linearGradient><linearGradient id="linear-gradient-36" x1="1177.22" y1="696.66" x2="1075.16" y2="801.3" xlink:href="#linear-gradient-15"/><linearGradient id="linear-gradient-37" x1="980.67" y1="1027.48" x2="1024.86" y2="968.18" xlink:href="#linear-gradient-32"/><linearGradient id="linear-gradient-38" x1="905.57" y1="821.96" x2="988.57" y2="821.96" xlink:href="#linear-gradient-35"/><linearGradient id="linear-gradient-39" x1="968.21" y1="788.95" x2="1068.98" y2="953.02" xlink:href="#linear-gradient-35"/><linearGradient id="linear-gradient-40" x1="1047.4" y1="767.83" x2="1072.44" y2="920.95" xlink:href="#linear-gradient-35"/><linearGradient id="linear-gradient-41" x1="1065.77" y1="702.24" x2="1138.73" y2="821.04" gradientTransform="translate(293.64 -289.34) rotate(21.78)" xlink:href="#linear-gradient-35"/><linearGradient id="linear-gradient-42" x1="1005.05" y1="771.44" x2="1032.08" y2="732.2" xlink:href="#linear-gradient-2"/><linearGradient id="linear-gradient-43" x1="1002.6" y1="751.54" x2="1045.33" y2="725.81" xlink:href="#linear-gradient-2"/><linearGradient id="linear-gradient-44" x1="1013.64" y1="784.97" x2="1022.54" y2="836.62" xlink:href="#linear-gradient-3"/><linearGradient id="linear-gradient-45" x1="989.91" y1="782.12" x2="998.9" y2="782.12" xlink:href="#linear-gradient-27"/><linearGradient id="linear-gradient-46" x1="988.15" y1="778.71" x2="992.51" y2="772.86" gradientTransform="translate(-24.82 37.7) rotate(-2.42)" xlink:href="#linear-gradient-32"/><linearGradient id="linear-gradient-47" x1="995.04" y1="780.86" x2="1008.9" y2="865.57" xlink:href="#linear-gradient-2"/><linearGradient id="linear-gradient-48" x1="1543.58" y1="860.4" x2="1556.94" y2="843.49" xlink:href="#linear-gradient-35"/><linearGradient id="linear-gradient-49" x1="1033.11" y1="1130.72" x2="1055.08" y2="1130.72" gradientTransform="matrix(-0.96, 0.27, 0.27, 0.96, 2359.8, -331.48)" xlink:href="#linear-gradient-3"/><linearGradient id="linear-gradient-50" x1="869.75" y1="1120.99" x2="879.01" y2="1101.82" gradientTransform="matrix(-0.98, 0.2, 0.2, 0.98, 2280.99, -234.9)" xlink:href="#linear-gradient-2"/><linearGradient id="linear-gradient-51" x1="1067.53" y1="1129.3" x2="1089.5" y2="1129.3" gradientTransform="matrix(-0.96, 0.27, 0.27, 0.96, 2359.8, -331.48)" xlink:href="#linear-gradient-3"/><linearGradient id="linear-gradient-52" x1="904.18" y1="1121.96" x2="913.44" y2="1102.78" gradientTransform="matrix(-0.98, 0.2, 0.2, 0.98, 2280.99, -234.9)" xlink:href="#linear-gradient-2"/><linearGradient id="linear-gradient-53" x1="1470.9" y1="938.58" x2="1524.43" y2="870.81" xlink:href="#linear-gradient-35"/><linearGradient id="linear-gradient-54" x1="1477.17" y1="941.43" x2="1530.18" y2="874.29" xlink:href="#linear-gradient-35"/><linearGradient id="linear-gradient-55" x1="1438.53" y1="911.46" x2="1492.97" y2="842.53" xlink:href="#linear-gradient-35"/><linearGradient id="linear-gradient-56" x1="1545.68" y1="1018.84" x2="1619.49" y2="925.38" xlink:href="#linear-gradient-3"/><linearGradient id="linear-gradient-57" x1="1586.34" y1="936.02" x2="1504.44" y2="1026.74" xlink:href="#linear-gradient-3"/><linearGradient id="linear-gradient-58" x1="1549.34" y1="957.21" x2="1537.31" y2="923.15" gradientUnits="userSpaceOnUse"><stop offset="0" stop-color="#311944"/><stop offset="1" stop-color="#893976"/></linearGradient><linearGradient id="linear-gradient-59" x1="1496.81" y1="907.86" x2="1501.22" y2="938.32" xlink:href="#linear-gradient-58"/><linearGradient id="linear-gradient-60" x1="1495.49" y1="914.53" x2="1520.4" y2="914.53" xlink:href="#linear-gradient-2"/><linearGradient id="linear-gradient-61" x1="1584.16" y1="910.52" x2="1560.72" y2="877.24" xlink:href="#linear-gradient-3"/><linearGradient id="linear-gradient-62" x1="1539.2" y1="965.61" x2="1590.5" y2="861.41" xlink:href="#linear-gradient-58"/><linearGradient id="linear-gradient-63" x1="1514.14" y1="898.73" x2="1626.84" y2="898.73" xlink:href="#linear-gradient-58"/><linearGradient id="linear-gradient-64" x1="1928.12" y1="358.1" x2="1930.61" y2="291.99" gradientTransform="translate(-133.53 -257.23) rotate(23.5)" xlink:href="#linear-gradient-2"/><linearGradient id="linear-gradient-65" x1="328.7" y1="556.82" x2="311.88" y2="514.08" gradientTransform="matrix(-0.97, -0.25, -0.25, 0.97, 1946.04, 363)" xlink:href="#linear-gradient-32"/><linearGradient id="linear-gradient-66" x1="895.61" y1="539.35" x2="894.84" y2="601.7" gradientTransform="matrix(0.98, 0.19, -0.19, 0.98, 733.49, 95.86)" xlink:href="#linear-gradient-2"/><linearGradient id="linear-gradient-67" x1="323.56" y1="558.87" x2="306.72" y2="516.09" gradientTransform="matrix(-0.97, -0.25, -0.25, 0.97, 1946.04, 363)" xlink:href="#linear-gradient-32"/><linearGradient id="linear-gradient-68" x1="307.08" y1="533.09" x2="307.95" y2="540.9" gradientTransform="matrix(-0.97, -0.25, -0.25, 0.97, 1946.04, 363)" gradientUnits="userSpaceOnUse"><stop offset="0" stop-color="#ffc444"/><stop offset="1" stop-color="#f36f56"/></linearGradient><linearGradient id="linear-gradient-69" x1="1838.94" y1="464.33" x2="1823.66" y2="436.41" gradientTransform="matrix(0.97, -0.25, 0.25, 0.97, -15.19, 173.31)" xlink:href="#linear-gradient-3"/><linearGradient id="linear-gradient-70" x1="1652.1" y1="-2.04" x2="1656.17" y2="71.33" gradientTransform="translate(3050.12 -541.72) rotate(147.63)" xlink:href="#linear-gradient-3"/><linearGradient id="linear-gradient-71" x1="1650.98" y1="36.8" x2="1648.81" y2="-62.26" gradientTransform="translate(3050.12 -541.72) rotate(147.63)" xlink:href="#linear-gradient-2"/><linearGradient id="linear-gradient-72" x1="2537.19" y1="515.36" x2="2541.26" y2="588.72" gradientTransform="translate(-652.16 1357.29) rotate(-32.29)" xlink:href="#linear-gradient-3"/><linearGradient id="linear-gradient-73" x1="2597.55" y1="87.56" x2="2595.95" y2="14.46" gradientTransform="translate(-662.5 -421.89) rotate(18.03)" xlink:href="#linear-gradient-2"/><linearGradient id="linear-gradient-74" x1="1886.48" y1="178.35" x2="1876.28" y2="160.31" gradientUnits="userSpaceOnUse"><stop offset="0" stop-color="#311944"/><stop offset="1" stop-color="#a03976"/></linearGradient><linearGradient id="linear-gradient-75" x1="1807.24" y1="448.53" x2="1774.17" y2="332.45" gradientUnits="userSpaceOnUse"><stop offset="0" stop-color="#444b8c"/><stop offset="1" stop-color="#3e4177"/></linearGradient><linearGradient id="linear-gradient-76" x1="1801.15" y1="450.27" x2="1768.07" y2="334.19" xlink:href="#linear-gradient-75"/><linearGradient id="linear-gradient-77" x1="1745.33" y1="365.01" x2="1700.1" y2="282.3" xlink:href="#linear-gradient-75"/><linearGradient id="linear-gradient-78" x1="628.43" y1="-134.22" x2="516.61" y2="-40.58" gradientTransform="matrix(-0.85, -0.53, -0.53, 0.85, 2119.62, 517.6)" xlink:href="#linear-gradient-3"/><linearGradient id="linear-gradient-79" x1="328.53" y1="156.41" x2="312.51" y2="98.45" gradientTransform="matrix(-0.99, -0.12, -0.12, 0.99, 2106.19, 104.62)" xlink:href="#linear-gradient-74"/><linearGradient id="linear-gradient-80" x1="369.33" y1="67.36" x2="318.53" y2="109.64" gradientTransform="matrix(-0.99, -0.12, -0.12, 0.99, 2106.19, 104.62)" xlink:href="#linear-gradient-74"/><linearGradient id="linear-gradient-81" x1="464.03" y1="104.76" x2="437.44" y2="137.83" gradientTransform="matrix(-0.62, 0.78, -0.78, -0.62, 2033.2, -80.78)" xlink:href="#linear-gradient-74"/><linearGradient id="linear-gradient-82" x1="813.87" y1="840.5" x2="843.52" y2="840.5" xlink:href="#linear-gradient-3"/><linearGradient id="linear-gradient-83" x1="837.75" y1="844.47" x2="808.86" y2="837.35" xlink:href="#linear-gradient-3"/><linearGradient id="linear-gradient-84" x1="724.24" y1="837.4" x2="813.04" y2="837.4" xlink:href="#linear-gradient-35"/><linearGradient id="linear-gradient-85" x1="721.17" y1="856.74" x2="750.65" y2="856.74" xlink:href="#linear-gradient-35"/><linearGradient id="linear-gradient-86" x1="726.75" y1="851.55" x2="740.96" y2="851.55" xlink:href="#linear-gradient-3"/><linearGradient id="linear-gradient-87" x1="747.97" y1="853.65" x2="816.32" y2="853.65" xlink:href="#linear-gradient-35"/><linearGradient id="linear-gradient-88" x1="762.08" y1="858.6" x2="805.73" y2="858.6" xlink:href="#linear-gradient-35"/><linearGradient id="linear-gradient-89" x1="744.06" y1="829.59" x2="793.74" y2="829.59" xlink:href="#linear-gradient-3"/><linearGradient id="linear-gradient-90" x1="752.68" y1="847.94" x2="759.75" y2="846.84" gradientTransform="matrix(1, 0, 0, 0.92, 1.53, 50.67)" xlink:href="#linear-gradient-32"/><linearGradient id="linear-gradient-91" x1="734.65" y1="832.71" x2="756.71" y2="832.71" xlink:href="#linear-gradient-32"/><linearGradient id="linear-gradient-92" x1="727.76" y1="814.27" x2="742" y2="828.92" xlink:href="#linear-gradient-3"/><linearGradient id="linear-gradient-93" x1="811.32" y1="860.03" x2="850.14" y2="908.87" gradientTransform="matrix(-1, 0, 0, 1, 1592.07, 0)" xlink:href="#linear-gradient-2"/><linearGradient id="linear-gradient-94" x1="981.41" y1="936.2" x2="1007.85" y2="830.47" gradientTransform="matrix(-1, 0, 0, 1, 1592.07, 0)" xlink:href="#linear-gradient-2"/><linearGradient id="linear-gradient-95" x1="776.79" y1="1119.82" x2="789.32" y2="1130.98" gradientTransform="matrix(-0.99, -0.14, -0.14, 0.99, 1511.37, 181.03)" xlink:href="#linear-gradient-3"/><linearGradient id="linear-gradient-96" x1="-136.4" y1="1130.98" x2="-136.4" y2="1109.14" gradientTransform="matrix(-0.99, -0.14, -0.14, 0.99, 595.16, 51.51)" xlink:href="#linear-gradient-2"/><linearGradient id="linear-gradient-97" x1="778.05" y1="1118.41" x2="790.58" y2="1129.56" gradientTransform="matrix(-0.99, -0.14, -0.14, 0.99, 1511.37, 181.03)" xlink:href="#linear-gradient-3"/><linearGradient id="linear-gradient-98" x1="917.9" y1="1188.06" x2="930.44" y2="1199.22" gradientTransform="matrix(-1, 0, 0, 1, 1592.07, 0)" xlink:href="#linear-gradient-3"/><linearGradient id="linear-gradient-99" x1="4.67" y1="1199.24" x2="4.67" y2="1177.4" gradientTransform="matrix(-1, 0, 0, 1, 666.76, 0)" xlink:href="#linear-gradient-2"/><linearGradient id="linear-gradient-100" x1="1161.14" y1="1209.26" x2="1079.38" y2="879.13" gradientTransform="translate(-498.03)" xlink:href="#linear-gradient-3"/><linearGradient id="linear-gradient-101" x1="1039.32" y1="953.89" x2="863.81" y2="831.83" gradientTransform="matrix(-1, 0, 0, 1, 1592.07, 0)" xlink:href="#linear-gradient-2"/><linearGradient id="linear-gradient-102" x1="919.16" y1="1186.65" x2="931.7" y2="1197.8" gradientTransform="matrix(-1, 0, 0, 1, 1592.07, 0)" xlink:href="#linear-gradient-3"/><linearGradient id="linear-gradient-103" x1="629.39" y1="831.39" x2="655.46" y2="780.45" xlink:href="#linear-gradient-2"/><linearGradient id="linear-gradient-104" x1="933.1" y1="787.94" x2="1001" y2="873.37" gradientTransform="matrix(-1, 0, 0, 1, 1592.07, 0)" xlink:href="#linear-gradient-2"/><linearGradient id="linear-gradient-105" x1="1037.49" y1="974.59" x2="839.9" y2="837.17" gradientTransform="matrix(-1, 0, 0, 1, 1592.07, 0)" xlink:href="#linear-gradient-2"/></defs><g class="cls-1"><g id="レイヤー_2" data-name="レイヤー 2"><g id="Illustration"><path class="cls-2" d="M1118.46,845.74C663.59,860.2,330,910.53,103.05,905.6c-19.32-.41-72.39-2-73.16,4.44-.95,7.92,106.64,51.57,230.57,46.56,32.32-1.31,78.76-6.45,93,17.48,9.33,15.64-3.85,29,2.22,46.55,17.19,49.63,155.53,37.07,157.41,53.21,2.27,19.54-200.69,35.8-208.4,90.9-4.82,34.41,67.73,75.3,120.57,95.54,50.59,19.37,172.42,54,453.64-40.11,201.11-67.31,168.3-94.9,288.31-117.25,127.14-23.68,155.34,7.76,421.24-4.43,167.17-7.67,206.18-22,237.22-51,37.25-34.77,60.84-88.58,137.46-130.81,35.7-19.68,53.39-20.57,53.21-26.6C2015.47,860.71,1594.36,830.62,1118.46,845.74Z"/><path class="cls-2" d="M845.76,870.87c-339.7,10.14-693.56,35-693.19,45.82.22,6.72,136.7,17.12,286.73,7.39,146.4-9.5,188.08-30.53,282.31-10.35,94.73,20.29,81.56,47.75,184.75,70.95,62.8,14.12,178.81,40.19,289.7-4.43,29.19-11.75,67.76-32.32,131.54-42.87,40.69-6.73,71.3-6,85.73-5.91,121,.92,276.85-31.49,276.39-44.34C1689,865.57,1246.77,858.9,845.76,870.87Z"/><path class="cls-3" d="M325,291C148.3,291,0,435.09,0,612.83s148.3,311.87,325,300c170.24-11.43,303.72-155,303.72-321.11S495.28,291,325,291Zm0,38.07c51.95-.21,93.64,41.13,93.64,92.33S377,515.13,325,516.39c-52.54,1.28-95.57-40-95.57-92.3S272.5,329.29,325,329.07Zm22.3,272.1A23.18,23.18,0,0,1,325,624.05a21.36,21.36,0,0,1-22.4-21.38A23.17,23.17,0,0,1,325,579.78,21.37,21.37,0,0,1,347.34,601.17ZM140.46,703.64C85.8,706,41,664.77,41,611.45s44.78-97.58,99.44-98.86c54-1.27,97.39,40,97.39,92.25S194.5,701.28,140.46,703.64ZM325,874.76c-52.54,3.31-95.57-36.34-95.57-88.6s43-96.47,95.57-98.72c51.95-2.23,93.64,37.5,93.64,88.7S377,871.48,325,874.76Zm177.5-186.94C452,690,410.62,650.29,410.62,599s41.39-93.76,91.92-94.95c50-1.17,90.1,38.61,90.1,88.84S552.53,685.64,502.54,687.82Z"/><path class="cls-4" d="M328.92,291c-176.74,0-325,144.09-325,321.83s148.3,311.87,325,300c170.24-11.43,303.72-155,303.72-321.11S499.16,291,328.92,291Zm0,38.07c51.95-.21,93.64,41.13,93.64,92.33s-41.69,93.73-93.64,95c-52.54,1.28-95.57-40-95.57-92.3S276.38,329.29,328.92,329.07Zm22.3,272.1a23.18,23.18,0,0,1-22.3,22.88,21.36,21.36,0,0,1-22.4-21.38,23.17,23.17,0,0,1,22.4-22.89A21.37,21.37,0,0,1,351.22,601.17ZM144.34,703.64C89.68,706,44.9,664.77,44.9,611.45s44.78-97.58,99.44-98.86c54-1.27,97.39,40,97.39,92.25S198.38,701.28,144.34,703.64ZM328.92,874.76c-52.54,3.31-95.57-36.34-95.57-88.6s43-96.47,95.57-98.72c51.95-2.23,93.64,37.5,93.64,88.7S380.87,871.48,328.92,874.76Zm177.5-186.94C455.88,690,414.5,650.29,414.5,599s41.38-93.76,91.92-94.95c50-1.17,90.1,38.61,90.1,88.84S556.41,685.64,506.42,687.82Z"/><path class="cls-5" d="M525.83,595.3c0,107.68-87.11,199.77-196.91,205.82-112.46,6.19-205.66-79.84-205.66-192.3s93.2-204.75,205.66-206.1C438.72,401.39,525.83,487.63,525.83,595.3Z"/><path class="cls-6" d="M494.73,596.35c0,90.67-73.49,168-165.81,172.73C234.73,774,157,701.73,157,607.69s77.78-171.48,172-172.94C421.24,433.32,494.73,505.68,494.73,596.35Z"/><path class="cls-7" d="M554.94,595.3C554.94,703,467.83,795.07,358,801.12c-112.46,6.19-205.66-79.84-205.66-192.3S245.57,404.07,358,402.72C467.83,401.39,554.94,487.63,554.94,595.3Z"/><path class="cls-8" d="M523.84,596.35c0,90.67-73.49,168-165.81,172.73-94.19,4.87-172-67.35-172-161.39s77.78-171.48,172-172.94C450.35,433.32,523.84,505.68,523.84,596.35Z"/><path class="cls-9" d="M352.86,291c-176.74,0-325,144.09-325,321.83s148.3,311.87,325,300c170.24-11.43,303.72-155,303.72-321.11S523.1,291,352.86,291Zm0,38.07c51.95-.21,93.64,41.13,93.64,92.33s-41.69,93.73-93.64,95c-52.54,1.28-95.57-40-95.57-92.3S300.32,329.29,352.86,329.07Zm22.3,272.1a23.18,23.18,0,0,1-22.3,22.88,21.37,21.37,0,0,1-22.41-21.38,23.18,23.18,0,0,1,22.41-22.89A21.37,21.37,0,0,1,375.16,601.17ZM168.28,703.64c-54.66,2.39-99.44-38.87-99.44-92.19s44.78-97.58,99.44-98.86c54-1.27,97.39,40,97.39,92.25S222.31,701.28,168.28,703.64ZM352.86,874.76c-52.54,3.31-95.57-36.34-95.57-88.6s43-96.47,95.57-98.72c51.95-2.23,93.64,37.5,93.64,88.7S404.81,871.48,352.86,874.76Zm177.5-186.94C479.82,690,438.44,650.29,438.44,599s41.38-93.76,91.92-94.95c50-1.17,90.1,38.61,90.1,88.84S580.34,685.64,530.36,687.82Z"/><path class="cls-10" d="M358,291C181.29,291,33,435.09,33,612.83s148.3,311.87,325,300c170.24-11.43,303.72-155,303.72-321.11S528.27,291,358,291Zm0,38.07c52-.21,93.64,41.13,93.64,92.33S410,515.13,358,516.39c-52.54,1.28-95.57-40-95.57-92.3S305.49,329.29,358,329.07Zm22.3,272.1A23.18,23.18,0,0,1,358,624.05a21.37,21.37,0,0,1-22.41-21.38A23.18,23.18,0,0,1,358,579.78,21.37,21.37,0,0,1,380.33,601.17ZM173.45,703.64C118.79,706,74,664.77,74,611.45s44.78-97.58,99.44-98.86c54-1.27,97.39,40,97.39,92.25S227.49,701.28,173.45,703.64ZM358,874.76c-52.54,3.31-95.57-36.34-95.57-88.6s43-96.47,95.57-98.72c52-2.23,93.64,37.5,93.64,88.7S410,871.48,358,874.76Zm177.5-186.94C485,690,443.61,650.29,443.61,599s41.38-93.76,91.92-94.95c50-1.17,90.1,38.61,90.1,88.84S585.52,685.64,535.53,687.82Z"/><path class="cls-11" d="M451.62,774.13c0,.67.05,1.34.05,2,0,51.21-41.69,95.34-93.64,98.62-52.54,3.31-95.57-36.34-95.57-88.6,0-38.11,23-72,55.8-88.38a117.43,117.43,0,0,1-14-27.21C285.62,618,321.23,596.74,307.75,546c-18.24-68.67-93.61-68.06-122.19-132.88-7.25-16.43-11.89-38.1-8.24-66.78C90.7,404.45,33,502.49,33,612.83c0,177.74,148.3,311.87,325,300,89.36-6,168.43-48.32,223.31-110.65a205.08,205.08,0,0,0-51.46-19.48C500.83,776,477,777.24,451.62,774.13ZM173.45,703.64C118.79,706,74,664.77,74,611.45s44.78-97.58,99.44-98.86c54-1.27,97.39,40,97.39,92.25S227.49,701.28,173.45,703.64Z"/><path class="cls-2" d="M981.26,1061.47c139.63-4.23,172.52-15.61,175.82-5,4.59,14.76-52.33,59.46-115.54,58.61-54.35-.73-105.36-35-102.15-46.89C941,1062.33,955.53,1062.25,981.26,1061.47Z"/><path class="cls-2" d="M710.12,1096.05C844.64,1067.92,876,1057,885.94,1072.61c13.13,20.56-25.14,64.58-30.14,70.33-32.4,37.25-90.73,64.65-134,48.56-15.81-5.89-30.53-17.94-35.16-13.4-5.14,5,11.7,21.18,8.37,33.49-9.93,36.64-198.16,37-207.64-3.35-4.26-18.16,28.65-40.22,53.59-56.93C587.8,1119.94,626.52,1113.53,710.12,1096.05Z"/><path class="cls-2" d="M1760.67,916.69c65.39-9.5,130.58-21.29,134.5-8.87,3.54,11.24-43.47,41.08-93.12,56.17-77,23.39-138.16,4.58-141.89,17.73-1.7,6,8.81,18,63.56,44.34-26.79,19.17-66.85,40.8-112.33,35.48-26.77-3.14-28.68-12.47-66.52-26.61-71.95-26.88-101.43-6.73-180.32-32.51-31.73-10.38-70.41-23-69.46-35.48C1297.11,940.28,1477.46,957.81,1760.67,916.69Z"/><path class="cls-12" d="M444.15,819.69C420.42,821,401,805.21,401,784.44V36.19c0-20.76,19.4-37,43.13-36.16L1564.24,38.77a34.21,34.21,0,0,1,32.85,33.85V722.78c0,18-14.71,33.53-32.85,34.54Z"/><path class="cls-13" d="M1174.4,902.51a52.88,52.88,0,0,1-35.06-39.8l-26-129-222.9,7.92L863,876c-3.84,18.81,11.54,37.69,29.25,44.62l93.26,36.49A121.13,121.13,0,0,0,1040,965l197.08-16.86a12.22,12.22,0,0,0,11.06-10.83c.67-5.81,4.71-12.33-.79-14.15Z"/><path class="cls-14" d="M1176.61,894.67a52.41,52.41,0,0,1-35-39.31l-26-127.34-217.46,7.82L870.68,868.51a38.81,38.81,0,0,0,24,44l93.17,36a122.32,122.32,0,0,0,54.46,7.8l196.89-16.64A12.15,12.15,0,0,0,1242,916.1Z"/><path class="cls-15" d="M453,819.69c-23.73,1.33-43.13-14.48-43.13-35.25V36.19c0-20.76,19.4-37,43.13-36.16L1573.1,38.77A34.2,34.2,0,0,1,1606,72.62V722.78c0,18-14.7,33.53-32.85,34.54Z"/><path class="cls-16" d="M1573.1,54.06,453,17.47c-12.69-.41-23,8.24-23,19.33V783.41c0,11.09,10.31,19.52,23,18.84L1573.1,742a18.75,18.75,0,0,0,17.6-18.47V72.16A18.27,18.27,0,0,0,1573.1,54.06Z"/><path class="cls-17" d="M453,738.63c-4.94.23-9-3.09-9-7.4v-694c0-4.31,4-7.7,9-7.54L1573.1,64.77a7.13,7.13,0,0,1,6.88,7.06V679.09a7.27,7.27,0,0,1-6.88,7.17Z"/><polygon class="cls-18" points="1534.96 648.84 502.15 692.07 502.15 133.41 1534.96 154.07 1534.96 648.84"/><polygon class="cls-19" points="1534.96 137.16 502.15 114.32 502.15 66.61 1534.96 94.91 1534.96 137.16"/><path class="cls-20" d="M1456.52,114.09a5.36,5.36,0,0,1-5.57,5.33,5.68,5.68,0,0,1-5.58-5.6,5.36,5.36,0,0,1,5.58-5.33A5.7,5.7,0,0,1,1456.52,114.09Z"/><path class="cls-21" d="M1479.37,114.66a5.32,5.32,0,0,1-5.53,5.31,5.65,5.65,0,0,1-5.55-5.58,5.33,5.33,0,0,1,5.55-5.32A5.66,5.66,0,0,1,1479.37,114.66Z"/><path class="cls-22" d="M1502.1,115.22a5.31,5.31,0,0,1-5.5,5.3,5.64,5.64,0,0,1-5.52-5.57,5.32,5.32,0,0,1,5.52-5.3A5.64,5.64,0,0,1,1502.1,115.22Z"/><polygon class="cls-23" points="1325.93 559.68 524.68 583.66 524.68 147.92 1325.93 162.7 1325.93 559.68"/><polygon class="cls-24" points="1325.93 559.68 524.68 583.66 524.68 517.57 1325.93 499.47 1325.93 559.68"/><path class="cls-25" d="M1019.8,336.29c0,38.66-33.8,70.37-75.85,70.82-42.48.46-77.22-31.07-77.22-70.42s34.74-71.07,77.22-70.83C986,266.09,1019.8,297.62,1019.8,336.29Z"/><polygon class="cls-18" points="913.85 377.53 913.85 295.6 1002.02 336.33 913.85 377.53"/><polygon class="cls-18" points="1310.72 536.05 542.93 556.78 542.93 546.15 1310.72 526.33 1310.72 536.05"/><polygon class="cls-26" points="749.08 551.21 542.93 556.78 542.93 546.15 749.08 540.83 749.08 551.21"/><path class="cls-27" d="M755.58,545.85c0,8.59-7.73,15.78-17.28,16S721,555.39,721,546.76s7.78-15.82,17.34-16.06S755.58,537.25,755.58,545.85Z"/><polygon class="cls-18" points="1523.93 278.1 1339.94 277.28 1339.94 162.95 1523.93 166.35 1523.93 278.1"/><g class="cls-28"><path class="cls-29" d="M1455.47,221.44A22,22,0,0,1,1433,243.25a22.62,22.62,0,0,1-22.62-22.33A22,22,0,0,1,1433,199.11C1445.41,199.29,1455.47,209.28,1455.47,221.44Z"/><polygon class="cls-18" points="1424.13 233.85 1424.13 208.31 1450.17 221.38 1424.13 233.85"/></g><polygon class="cls-27" points="1523.93 298.57 1339.94 298.22 1339.94 289.66 1523.93 290.21 1523.93 298.57"/><polygon class="cls-27" points="1455.47 313.02 1339.94 313 1339.94 304.44 1455.47 304.58 1455.47 313.02"/><polygon class="cls-18" points="1523.93 442.04 1339.94 444.98 1339.94 330.66 1523.93 330.29 1523.93 442.04"/><g class="cls-28"><path class="cls-30" d="M1455.47,386.78c0,12.16-10.06,22.13-22.49,22.28a22.08,22.08,0,0,1-22.62-21.87A22.56,22.56,0,0,1,1433,364.91,22.09,22.09,0,0,1,1455.47,386.78Z"/><polygon class="cls-18" points="1424.13 399.84 1424.13 374.29 1450.17 386.83 1424.13 399.84"/></g><polygon class="cls-27" points="1523.93 462.52 1339.94 465.93 1339.94 457.37 1523.93 454.15 1523.93 462.52"/><polygon class="cls-27" points="1455.47 478.36 1339.94 480.71 1339.94 472.15 1455.47 469.92 1455.47 478.36"/><polygon class="cls-18" points="1523.93 605.98 1339.94 612.69 1339.94 498.37 1523.93 494.23 1523.93 605.98"/><g class="cls-28"><path class="cls-31" d="M1455.47,552.12c0,12.16-10.06,22.34-22.49,22.74s-22.62-9.18-22.62-21.41,10.14-22.4,22.62-22.73A21.54,21.54,0,0,1,1455.47,552.12Z"/><polygon class="cls-18" points="1424.13 565.82 1424.13 540.28 1450.17 552.28 1424.13 565.82"/></g><polygon class="cls-27" points="1523.93 626.46 1339.94 633.63 1339.94 625.07 1523.93 618.09 1523.93 626.46"/><polygon class="cls-27" points="1455.47 643.7 1339.94 648.42 1339.94 639.86 1455.47 635.26 1455.47 643.7"/><polygon class="cls-27" points="1079.16 613.13 524.68 632.75 524.68 604.1 1079.16 586.25 1079.16 613.13"/><polygon class="cls-27" points="1325.93 604.4 1246.81 607.2 1246.81 580.85 1325.93 578.31 1325.93 604.4"/><polygon class="cls-27" points="1234.59 607.63 1153.7 610.5 1153.7 583.85 1234.59 581.25 1234.59 607.63"/><polygon class="cls-27" points="778.36 657.42 524.68 667.37 524.68 653.04 778.36 643.5 778.36 657.42"/><path class="cls-32" d="M1397.7,697.17c0,15.51-13.38,28.77-30,29.63s-30.2-11.12-30.2-26.75,13.55-28.91,30.2-29.64S1397.7,681.66,1397.7,697.17Z"/><path class="cls-33" d="M1823.78,666.77l-467,22.74V933c0,19.77,17.06,34.36,38,32.61l408.93-34.2c18.64-1.56,33.69-17.83,33.69-36.35V727.9l13.74-51.56Z"/><path class="cls-34" d="M1817.45,933.93l-408.92,34.2c-21,1.75-38-12.84-38-32.61V757.12l480.62-26.68V897.58C1851.14,916.1,1836.1,932.37,1817.45,933.93Z"/><path class="cls-33" d="M1789.61,776.48,1439.38,798c-4.81.29-8.72-3.16-8.72-7.71a9.14,9.14,0,0,1,8.72-8.77l350.23-20.75a7.34,7.34,0,0,1,7.92,7.37A8.49,8.49,0,0,1,1789.61,776.48Z"/><path class="cls-33" d="M1789.61,801.35l-350.23,22.73c-4.81.32-8.72-3.12-8.72-7.68s3.91-8.49,8.72-8.79l350.23-22a7.3,7.3,0,0,1,7.92,7.34A8.52,8.52,0,0,1,1789.61,801.35Z"/><path class="cls-33" d="M1804.88,501.58,1797,482.63c-7.11-17.1-27-25-44.52-17.6l-24.91,10.54-73.64,31.16-75.16,31.81L1502.07,571l-78.32,33.15-53,22.41-.81.35s-34.46,14.93-20.88,47.55l8.88,19.91,65.63-28.32,78.32-33.78,76.72-33.1,75.16-32.42L1727.44,535l72.18-31.13Z"/><path class="cls-35" d="M1370.52,699.39,1817.43,506.6l-7.86-18.94c-7.11-17.11-27-25-44.52-17.61L1382.52,631.94c-19.52,8.26-28.9,29.58-20.88,47.55Z"/><polygon class="cls-36" points="1740.14 480.59 1812.18 508.87 1740 540.01 1666.5 511.76 1740.14 480.59"/><polygon class="cls-36" points="1591.34 543.56 1666.35 571.78 1591.19 604.2 1514.63 576.03 1591.34 543.56"/><path class="cls-36" d="M1379.68,633.14l56.63-24,78.16,28.12-78.32,33.79-72.53-22.66C1366.77,641.84,1375.92,634.73,1379.68,633.14Z"/><polygon class="cls-35" points="1370.52 757.12 1851.14 730.43 1851.14 676.35 1370.52 699.39 1370.52 757.12"/><polygon class="cls-36" points="1844.87 676.64 1790.27 733.82 1711.73 738.18 1767.53 680.35 1844.87 676.64"/><polygon class="cls-36" points="1688.49 684.14 1631.47 742.63 1549.41 747.19 1607.71 688.02 1688.49 684.14"/><polygon class="cls-36" points="1379.68 756.62 1440.66 696.03 1525.12 691.98 1465.51 751.85 1379.68 756.62"/><path class="cls-33" d="M1403.2,697.17c0,15.51-13.39,28.77-30,29.63s-30.2-11.12-30.2-26.75,13.55-28.91,30.2-29.64S1403.2,681.66,1403.2,697.17Z"/><path class="cls-35" d="M1379.62,698.17c0,4.69-4,8.7-9.07,9s-9.13-3.36-9.13-8.09,4.1-8.74,9.13-9S1379.62,693.48,1379.62,698.17Z"/><path class="cls-37" d="M1011.51,1081.62s.55,4.36.18,5.82-13,2.51-17.33,2,2.56-4.89,5.3-5.72S1011.51,1081.62,1011.51,1081.62Z"/><path class="cls-38" d="M1005.14,1074.36l1.33,8.73s3.41,1.53,5,0l.18-9.15Z"/><path class="cls-39" d="M1076.54,1074s-2.69,2-2,4.39,7,12,11.46,14.67,3.07-2.94,1.77-6.47-4.63-11.28-5.92-12.59S1076.54,1074,1076.54,1074Z"/><path class="cls-40" d="M1071.7,1064.36c1.3,3.62,2.55,6.6,3.53,8.8,2.16,4.86,3.34,6.68,4.68,8.26,1.17,1.37,3.93,4.31,4.67,3.82s-1.26-4.06-5.16-14.52c-.57-1.52-2.35-6.36-2.35-6.36Z"/><path class="cls-41" d="M978.62,913.06a225.83,225.83,0,0,0-.49,40.37c1.73,22.34,6.2,36.47,11.8,60.29,3.42,14.56,8,36,12.21,62.77a11.85,11.85,0,0,0,7.49,1.47,11.33,11.33,0,0,0,4.49-1.71c10.95-33.47,7.72-54.2,2.43-67.12-2.25-5.51-5-9.86-6.44-18.32-1.93-11.2.46-17.47,3.86-43.41,2.43-18.49,2-21.35.4-24.13C1007.91,912.19,988.16,912.4,978.62,913.06Z"/><path class="cls-42" d="M910.51,819.41s-1.54-6-4.1-7.62-6.17-3.29-7-4-1.8,1.39.59,3l2.39,1.6a2.41,2.41,0,0,1-.1,1,3.6,3.6,0,0,1-3.26,2.05c-6.13,1.28-8.52,1.35-9.46,1.07-.13,0-.67-.21-.89,0s.29,1.58.56,2c1.66,2.53,7.41,3.63,11.72,1.65,1.57-.72,2.17-1.5,3.32-1.3,1.82.31,2.94,2.71,3.61,4.7Z"/><path class="cls-43" d="M1016.31,917c6.71,34.65,13.3,52.85,18.28,63.14a172.41,172.41,0,0,1,9.2,22.47,181.41,181.41,0,0,1,5.6,21.4c2.31,10.62,8,26.13,23.41,46.47a5.86,5.86,0,0,0,5.32.27,5.11,5.11,0,0,0,2.15-2.23c-2-19.45-4.32-35.79-6.32-48.4-.42-2.65-2.27-14.22-5.17-29.51-1.14-6-2.81-14.75-4.8-23.75-2.48-11.22-6.29-26.47-12.16-44.75Z"/><path class="cls-44" d="M905.57,821.33l5.23-4.66c.64.65,10,9.74,23,7,9-1.9,14.13-9.25,17.44-13.95,9.95-14.11,4-24.46,14.71-34.05,3-2.66,8.81-5.89,12.62-4.91,9.09,2.35,14.32,29.67,5.52,51.17-1.77,4.34-11.55,28.22-33.72,30.81C932.43,854.81,913.45,842.2,905.57,821.33Z"/><path class="cls-45" d="M1010.6,779.91c-3.81-3.52-11.09-7.58-14.74-17-1.1-2.84-5-12.89.75-20.58,3.41-4.56,9.74-7.66,15.32-6.57,4.77.94,5.52,4.26,13.62,11,3.16,2.6,8.23,6.78,13.87,9.11,9.67,4,15.48.23,25.18.66,11.93.53,25.78,7.18,32.46,16.86,11.84,17.17-5.32,34.6,7.66,54.72,4.25,6.59,6.34,5.11,16.41,17.88s15.13,19.16,14.23,27c-1.24,10.87-12.95,21.25-24,22-10.77.69-17.61-7.78-23.09-4.07-3.9,2.63-1.67,7.76-5.81,13.92-5.34,7.95-15.84,9.53-17.54,9.79-15.73,2.37-37-16.08-46-37.94C1002.74,837.16,1031.28,799,1010.6,779.91Z"/><path class="cls-46" d="M1016.55,1009.13c-2.25-5.51-5-9.86-6.44-18.32-1.93-11.2.46-17.47,3.86-43.41,2.43-18.49,2-21.35.4-24.13-3.51-6-11-8.7-18.54-9.79.1.39.2.78.29,1.16,4,18.18-11.22,29.28-4.36,49.27,3.38,9.86,8.77,12.11,10,23.55,1.18,10.71-3.09,12.94-2.17,22.67,1.36,14.55,11.69,18.07,14.38,29.22,1.75,7.24.28,17.82-12.48,33.15.21,1.32.42,2.64.63,4a11.85,11.85,0,0,0,7.49,1.47,11.33,11.33,0,0,0,4.49-1.71C1025.07,1042.78,1021.84,1022.05,1016.55,1009.13Z"/><path class="cls-47" d="M976.49,796.91c-16.38,12.94-14.56,37.76-24.63,39-3.08.39-2.91-2-10.25-4.36-10.73-3.49-15.78,0-23.33-2.61-3.12-1.1-7.19-3.45-11.2-9l-1.51,1.35c7.88,20.87,26.86,33.48,44.76,31.39,22.17-2.59,31.95-26.47,33.72-30.81A65.8,65.8,0,0,0,988.22,791,34.37,34.37,0,0,0,976.49,796.91Z"/><path class="cls-48" d="M964.61,777.29c1-1.56,4.19-5.89,17.74-9.07a82.09,82.09,0,0,1,22.64-2.5,77,77,0,0,1,12.86,1.59c12.37,2.68,37,12.1,37.89,24.93.61,9.16-11.6,9.75-18.51,26-5,11.82-5,26.58.49,38.06,4.41,9.22,12.21,16.14,18.13,21.39,8.88,7.88,13.48,9.09,16.46,16.16,3.25,7.69,0,11.43,4,16.7,4.32,5.65,9.39,3,16.72,8.74,7.51,5.86,4.84,10.68,11.68,17.15,9.93,9.4,23.1,6.35,23.71,10.58.53,3.64-8.83,8.57-16.78,10.58-15.75,4-29.48-2.69-33.56-4.75-11.31-5.68-9.36-9.35-18-13.68-14.43-7.25-24.3.81-57.17,1.64-17.81.46-26.81.56-31.74-5.47-4.51-5.5-2.14-11.53.56-37.54h0c.87-8.68,2.69-26.87,2.7-37.23,0-6.13-2.12-16.14-6.36-36.15-.25-1.18-2.55-12-4.41-26.44C962,784.93,962.26,780.94,964.61,777.29Z"/><g class="cls-49"><path class="cls-50" d="M1104.72,936.41c-6.84-6.47-4.17-11.29-11.68-17.15-7.33-5.72-12.4-3.09-16.72-8.74-4-5.27-.76-9-4-16.7-3-7.07-7.58-8.28-16.46-16.16-5.92-5.25-13.72-12.17-18.13-21.39-7.65-16-2.3-33.07-.49-38.06a55.65,55.65,0,0,1,21.83-27.29c-.41-.44-20.31,17.27-20.82,16.74-28.06,3.86-25,1.86-27,6.66-4.67,11.1,2.73,15.17,2.92,47.18.09,15.3-1.56,21.34,3.41,27.73,5.67,7.3,12.22,5,20.43,14.59,6.3,7.33,5.29,12,11.18,15.08,6.34,3.32,10.37-.55,17.52,1,11.93,2.54,14.48,16.31,22.37,23.83,6,5.7,17,9.68,38.75,5.4a3,3,0,0,0,.65-2.11C1127.82,942.76,1114.65,945.81,1104.72,936.41Z"/></g><path class="cls-51" d="M1000.54,787.05c-5.12,4.77,2.14,23.56,13.68,35.72l.9.93c2.28,2.34,18.07,18.3,31.23,13.87,11.08-3.74,14.41-19.93,14.56-28.51a36.45,36.45,0,0,0-4.31-17.88c-8.84-16.08-28.91-21.94-31-19.16-.72,1,1.82,4.87,6.89,12.71,5.88,9.08,8.66,11.93,7.73,15.51-.7,2.68-3.45,5.65-6.66,6-6.77.77-14.17-10.29-24-17.92-1.3-1-4.07-3-6.93-2.36A4.51,4.51,0,0,0,1000.54,787.05Z"/><path class="cls-52" d="M1008.74,750s1.42,11.31,5.59,13.9,10.93,6,11.67,6.9-25.86,3.78-39-2.88c4.35-.91,5.53-1.24,5.53-1.24a24,24,0,0,0,5.58-2.21,18.88,18.88,0,0,0,6.14-5.68l-.05-6.26Z"/><path class="cls-53" d="M1009.38,754s-2.72,3.74-7,2.18c-3.83-1.39-1.54-11.27,1.49-12.39a5.36,5.36,0,0,1,4.11.56,6,6,0,0,1,1.87,6.69c1-.28,1.81,0,2,.45s-.55,1.44-.74,1.62A3.22,3.22,0,0,1,1009.38,754Z"/><path class="cls-54" d="M1029.89,835.35a.23.23,0,0,1-.14,0c-25-13.54-30.88-40-30.94-40.31s-1.33-6.18,2.78-7.71,6.48-.83,11.34,3.46c1.19,1,2.64,2.58,4.17,4.19,4.79,5,11.35,11.93,16.41,11a.3.3,0,0,1,.36.25.31.31,0,0,1-.25.36c-5.4,1-11.82-5.77-17-11.19-1.53-1.61-3-3.12-4.14-4.16-5-4.41-7-4.7-10.72-3.34s-2.4,6.94-2.39,7c.06.26,5.85,26.5,30.63,39.9a.31.31,0,0,1,.12.42A.3.3,0,0,1,1029.89,835.35Z"/><path class="cls-55" d="M994.27,772.17,989.91,791s.82,1.77,3.64.8l5.35-17.93Z"/><path class="cls-56" d="M993.78,775.86a2.69,2.69,0,0,1-1.8-3c.37-2.41,1.18-6.16,2.87-8,2.61-2.79,6.31.27,7.15,1.22,1.19,1.35-.07,6.19-1,9.26a2.71,2.71,0,0,1-3.47,1.73Z"/><path class="cls-57" d="M1004.47,787.32s-13.45-12-15.24-10.06c-3.17,3.46-2.93,7,0,8.88s4.15,2.63,6.47,2.92l2.33.3,3,1.62S1005.05,790.52,1004.47,787.32Z"/><path class="cls-58" d="M1577.37,887.38c7.26-4,5.13-26.85-4.71-42.89-14-22.78-44.63-33.65-50.91-26.86-6.43,6.94,12.08,33,15.08,37.23C1547.74,870.22,1568.78,892.14,1577.37,887.38Z"/><path class="cls-59" d="M1643,1032.88c-1.35,1.5-1.66,4.26-.48,5.61s2.9.34,7.84.48c5.29.16,6.67,1.41,10.27.42,1.45-.4,4-1.38,4-2.41,0-.73-1.34-1.11-5.7-2.57-6.2-2.08-6.17-2.19-7.49-2.41C1648.12,1031.46,1644.8,1030.91,1643,1032.88Z"/><path class="cls-60" d="M1646.4,1024.25l2.66,8.83a5.15,5.15,0,0,1-5.22,1.05l-3.94-8.57Z"/><path class="cls-61" d="M1609.45,1040.64c-1.35,1.5-1.66,4.25-.48,5.61s2.9.34,7.84.48c5.29.16,6.67,1.41,10.27.42,1.45-.4,4-1.38,4-2.41,0-.73-1.34-1.11-5.71-2.57-6.19-2.08-6.16-2.19-7.48-2.41C1614.56,1039.21,1611.24,1038.67,1609.45,1040.64Z"/><path class="cls-62" d="M1612.84,1032l2.66,8.83a5.15,5.15,0,0,1-5.22,1.05l-3.94-8.57Z"/><path class="cls-63" d="M1463.54,819.1a115.19,115.19,0,0,1,37.14-6.2c17.84,0,32.18,0,42.07,8.44,24,20.47-2.86,69.5,10.91,105.81,1.51,4,5.9,16.58,2.08,30.18-.7,2.51-2.15,4.68-4.63,8.36-14.55,21.58-55.41,23.35-74.13,4.64-9.89-9.89-18.79-8.08-19-19.37C1457,906.42,1463.93,862,1463.54,819.1Z"/><path class="cls-64" d="M1481.32,876c-3.4-9.31.12-20-7.46-24.63a18.29,18.29,0,0,0-10-2.34c.45,32.74,1.1,65.44,1.89,99.61.27,11.29,1.68,11.85,12.62,21.74,12.67,11.45,34.51,15.19,53.25,11.45-24.54-15.09-42-30.72-39.54-44.12,2.92-15.6,31.5-20.21,30.35-31.3C1521.21,894.6,1488.76,896.32,1481.32,876Z"/><path class="cls-65" d="M1471.34,820.11c-8.25-5.57-28.12,8.47-39.14,20.84-5.12,5.74-22.94,25.74-18.52,52.62.73,4.37,4,24.85,21.58,34.88,15.69,9,36.88,6.67,53.85-6.05l7-6.18q3.43-3.69,6.85-7.4a55,55,0,0,0-18.24-10.05c-13-4.21-21.63,2-24.75-2.08-3.84-5.06,7.86-14.49,10.92-36C1471.68,855,1480.56,826.33,1471.34,820.11Z"/><path class="cls-66" d="M1484.87,960.22c-5.45,17.74,4.65,10.53,25.2.4,21.65-10.67,69-26,89.36-5.92,15.18,14.94,4.44,38.57,27.94,64.57a76.74,76.74,0,0,0,10.51,9.64l12.7-5.26c1.66-9.7,6.9-47.1-16.64-80.59-5.69-8.1-16.52-23.65-35-30.23C1548.81,895.05,1489.9,943.86,1484.87,960.22Z"/><path class="cls-67" d="M1464.89,943.67c-3.53,10.19-.35,21.9,5.41,29.17,12.8,16.15,41.54,14.45,59.49,8.49,21.84-7.26,26.71-20.47,35.3-17.22,13.35,5,3.85,37.91,27.94,64.57a75.87,75.87,0,0,0,10.51,9.63l12.7-5.25a162.45,162.45,0,0,0-4.38-44.62c-3.56-14.73-7.12-29.47-19-44a83.41,83.41,0,0,0-28.25-22.18C1528.22,905.3,1474.17,916.87,1464.89,943.67Z"/><polygon class="cls-68" points="1584.27 916.12 1484.87 914.64 1511.3 927.39 1584.52 922.6 1584.27 916.12"/><path class="cls-69" d="M1481.37,917.28a4.43,4.43,0,0,0,2.91,4.16L1516,933.89l.14-8.63-31.31-10.62A2.74,2.74,0,0,0,1481.37,917.28Z"/><path class="cls-70" d="M1495.56,913.29c-.61-.14,3-7.27,5.78-6.45s16.56,8.79,17.81,12.08l1.25,3.28s-6,.47-9.72-.78S1500.52,914.4,1495.56,913.29Z"/><path class="cls-71" d="M1518.82,864.69l-7,63.79c-.24,2.2,2.84,5.48,5,5.38l102.78-6.31a3.6,3.6,0,0,0,3.38-3l12.9-61.61c.39-2.24-3.64-4.56-5.92-4.5l-107.7,3A3.6,3.6,0,0,0,1518.82,864.69Z"/><path class="cls-72" d="M1521.17,866.55l-7,63.79a3.61,3.61,0,0,0,3.75,4L1622,929.41a3.6,3.6,0,0,0,3.38-3L1636,864.53a3.59,3.59,0,0,0-3.65-4.21l-107.7,3A3.6,3.6,0,0,0,1521.17,866.55Z"/><path class="cls-73" d="M1582.28,914.46c-9.09-3.85-5.88-11.2-16.61-20.35-14.16-12.07-28.59-6.84-33.64-16.19-1.57-2.92-2.32-7.46.42-14.8l-7.8.22a3.6,3.6,0,0,0-3.48,3.21l-7,63.79a3.61,3.61,0,0,0,3.75,4L1622,929.41a3.59,3.59,0,0,0,3.38-3l1.47-8.54a39.13,39.13,0,0,0-11.34-4.25C1600.24,910.53,1592.74,918.89,1582.28,914.46Z"/><path class="cls-74" d="M1502.35,788.52A77.43,77.43,0,0,1,1501,804c-.8,4.12-1.37,5.18-2.11,6-1.1,1.3-2.78,2.39-12.26,4.74-5.16,1.28-5.82,1.24-5.94,1.75-.55,2.5,13.51,11,28,9,8.89-1.25,17-6.33,16.49-9s-9.39-1.25-12-6.1c-1.84-3.37.23-8.17,2.67-12.13C1513.45,793.82,1504.71,793,1502.35,788.52Z"/><path class="cls-75" d="M1521,796.93a9.33,9.33,0,0,0,2.52-10.43c-1.34-3.09-4.42-4.28-6.26-5-5.33-2.06-12.87-1.58-16.6,2.86-2.21,2.62-.74,9.66-.55,10.91.22,1.41,1.1,2.1,1.77,3.3.93,1.66,2.38,4.29,4.71,8.67a24,24,0,0,1,2.23-3.4,20.1,20.1,0,0,1,3.75-3.71C1516.36,797.38,1518.42,799,1521,796.93Z"/><path class="cls-76" d="M1502.73,803.06a12.7,12.7,0,0,0,9.39,8.28c6.55,1.26,11.26-13,7.94-17.09a8.35,8.35,0,0,0-6.14-2.47c-1.42,0-2,.46-4.33.45-2.13,0-2.64-.37-3.38,0-.92.44-1.88,1.86-1.72,6.41-.9-1.56-2.25-2.43-3.43-2.2a2.26,2.26,0,0,0-1.07.61C1498.66,798.44,1499.62,800.94,1502.73,803.06Z"/><path class="cls-77" d="M1506.15,791.27c.25.32-1,1.23-1.5,2.85-1,3.15,1.26,7.81,4.46,9,1.9.7,2.74-.33,6,.17a15.18,15.18,0,0,1,4.62,1.49c.1,3.76-1.76,7-4.51,8-3,1.09-5.91-.81-7.13-1.6a9.52,9.52,0,0,1-4.28-5.25c-.85-3.16,1.12-4.41-.19-6.74-.66-1.18-1.75-1.89-2.44-4a9.78,9.78,0,0,1-.33-1.4C1503,792.44,1505.78,790.82,1506.15,791.27Z"/><path class="cls-78" d="M1517.09,805.46a8.16,8.16,0,0,1-3.95-.4c-.11,0-.25,0-.28,0s1.16,1.64,2.69,1.61c1.08,0,2.11-.77,2-1.05C1517.56,805.52,1517.33,805.47,1517.09,805.46Z"/><path class="cls-79" d="M1864.51,136.69l8.29-2.16a2.16,2.16,0,0,1,2.68,1.77l3.14,20.9a2.16,2.16,0,0,1-1.59,2.42l-8,2.09a2.16,2.16,0,0,1-2.68-1.74l-3.4-20.84A2.16,2.16,0,0,1,1864.51,136.69Z"/><path class="cls-80" d="M1870.19,150.76c-.51-4,2.08-7,.54-11.17a9.44,9.44,0,0,0-2-3.15l-3.37.88a2,2,0,0,0-1.49,2.28l3.18,19.47a2,2,0,0,0,2.5,1.63l6.58-1.72C1871.91,156,1870.5,153.09,1870.19,150.76Z"/><path class="cls-81" d="M1646.06,323.44s1.12-2.9-.64-4.42-11.45-5.93-16.32-5.83-.95,3.84,1.83,6,9.26,6.57,10.93,7S1646.06,323.44,1646.06,323.44Z"/><path class="cls-82" d="M1654.64,328.59c-2.82-2.2-5.29-3.92-7.15-5.16-4.12-2.75-6-3.59-7.8-4.17-1.61-.5-5.24-1.43-5.58-.67s3,2.56,11.3,8.85l5,3.82Z"/><path class="cls-83" d="M1777.84,458.72s-1.12,2.9.63,4.43,11.45,5.93,16.31,5.85,1-3.84-1.82-6-9.25-6.59-10.92-7S1777.84,458.72,1777.84,458.72Z"/><path class="cls-84" d="M1778.54,445.85a35.78,35.78,0,0,0,.59,8.81c.58,3,.93,4.67,2.35,6.17,2.5,2.65,6.88,3.17,7.51,2.11s-3.91-3.57-5.45-9.24a14.82,14.82,0,0,1-.25-6.3Z"/><path class="cls-85" d="M1877.86,163.28a10.09,10.09,0,0,1-.4-4.35c0-.09.1-.44.2-1,.16-.81.25-1.44.3-1.85a25.86,25.86,0,0,0,.38-4.4c0-1.21-.13-3-.75-3.12-.82-.2-2.4,2-3.26,4.14-1.11,2.8-.42,4.07-1.55,6a7.49,7.49,0,0,1-3.78,3,3.14,3.14,0,0,0,1.18.78c.63.22,1,.1,2,.38.36.11.61.21.71.25C1873.55,163.39,1874.91,163.56,1877.86,163.28Z"/><path class="cls-86" d="M1795.21,294.83c6.56,6.9,5.13,16.77,3.07,34.46-1.72,14.84-4.07,36.79-6.28,64.57q-3,29.07-6,58.14h-10a93.79,93.79,0,0,1-9.22-38.49c-.2-13.64,3-15.43,3.6-30.87.34-8.5-.41-13.26-6.81-50.12-5.08-29.33-6.08-34.83-2-39.3C1768.73,285.35,1786.87,286.05,1795.21,294.83Z"/><path class="cls-87" d="M1775.16,429.86c1.73-5.41,6.31-10.93,6.62-21.65.36-12.65-5.7-15.81-4.81-27.67.85-11.4,6.73-12.22,8.42-23.45,1.95-13-5.3-16.46-7.82-31.88-2.3-14.07,1-27.78,4.5-36.95-7.79-1.42-16.17.19-20.54,5-4.08,4.47-3.08,10,2,39.3,6.4,36.86,7.15,41.62,6.81,50.12-.61,15.44-3.8,17.23-3.6,30.87A93.79,93.79,0,0,0,1776,452h3.32C1773.92,442.26,1773.47,435.16,1775.16,429.86Z"/><path class="cls-88" d="M1644.33,330.24c14.05,19.36,40.92,51.35,64.15,45.93,12.29-2.87,16.74-14.61,52.85-64.19,8.68-11.92,16.08-21.75,21.32-28.65l-42.1-10.42A308,308,0,0,0,1721,310.7c-9.22,21.36-12.55,35.9-20.94,36.78-4.11.43-6.76-2.68-12.43-7.22-7.42-5.94-18.92-13.46-36.09-19.24Z"/><path class="cls-35" d="M1878.34,162.43c-2.2-.33-4.36,1-6.55.64-4.15,14.12-8.52,18.52-13.73,22.38-16.85,12.48-35.36,3.74-68,11.74a133.75,133.75,0,0,0-29.44,11.06c5,8.34,15.64,22.6,33.59,28.21,31.73,9.92,67.48-13.09,80.54-41.56C1881,181.42,1878.81,169.76,1878.34,162.43Z"/><path class="cls-89" d="M1823.5,223.81c2.46-1.9,3.08-3.93,8.85-9.8a36.63,36.63,0,0,1,5.23-4.37c14-9.77,23.8-5.67,33.66-13.3a26.4,26.4,0,0,0,5.24-5.51c-.51,1.35-1.06,2.7-1.68,4.07-13.06,28.47-48.81,51.48-80.54,41.56A55.07,55.07,0,0,1,1772,222.78a55.45,55.45,0,0,1,17.79-2.56C1806.88,220.61,1816.66,229.08,1823.5,223.81Z"/><path class="cls-90" d="M1745.88,185.52c4.61,1.43,11.28,5.4,20.57,3.95,2.8-.44,12.72-2,16.23-10.21,3.1-7.24-1.31-14.53-1.85-15.41-3.17-5.09-8-7.09-13.49-9.24-7.06-2.79-10.25-2.22-15.5-3.55-13-3.29-13.24-11.78-24.89-17.62-14.9-7.47-22.17,2.55-34.53-4-13.88-7.4-9-22.29-21.23-32.16-17-13.71-56.79-9.45-69.31,14.19-7.23,13.65-5.87,34.71,4.33,46.53,6,6.9,14.49,10.56,14.06,16.71-.3,4.37-5.48,5-8.51,11.18-3.91,8-.29,17.21.3,18.69,5.43,13.79,30.2,22.28,52,19.33C1703.42,218.57,1720.83,177.78,1745.88,185.52Z"/><path class="cls-35" d="M1741.11,188.12a336.86,336.86,0,0,1,36.72,1.86c29.28,3.09,28.31,4.27,33.88,3.79,5.14-.45-4.79,13.51-10.09,26.79a74.71,74.71,0,0,0-5.11,29.77c.18,6.86,1.42,12.36,3.92,23.35,4.33,19.1,7.55,23.49,4.5,28.38-4.44,7.12-16.9,6.77-19.09,6.66-11.06-.53-13.41-7-22.74-8.05-10.84-1.2-13.35,6.94-28.42,12.42-17.79,6.47-40.7,4.76-51.34-7.15-4.11-4.6-6.74-11-5-13,2.4-2.72,10.76,5.11,19.67,2,5.9-2.06,5.37-6.6,12.43-11,8.5-5.33,13.5-1.41,19.27-4.84,9-5.36,7.06-21,7.78-46.74A426.8,426.8,0,0,1,1741.11,188.12Z"/><path class="cls-35" d="M1741.11,188.12c-15.62.76-21.2,17-37.5,20.22-9.87,1.94-24.6-.73-45.75-21.27l-9,4.16c3.08,18.45,11.64,28.8,15.85,33.16,24,24.9,69.53,24.14,94.19,2.79a58.86,58.86,0,0,0,14.46-19.27C1765.57,198.22,1754.23,187.48,1741.11,188.12Z"/><path class="cls-91" d="M1773.26,174.64s-2.56,10.31-6.7,12.24-10.39,1.09-11.18,1.86,18.75,10.9,31.68,6.2l5.51-3c-4-.46-9.13-1.36-11-2.77a17.57,17.57,0,0,1-5-5.92l.74-5.79Z"/><path class="cls-92" d="M1772.23,178.28s2.11,3.75,6.23,2.78c3.68-.86,2.66-10.24,0-11.62a5,5,0,0,0-3.87.07,5.55,5.55,0,0,0-2.46,6c-.86-.37-1.68-.23-1.93.19s.35,1.39.5,1.58A3.07,3.07,0,0,0,1772.23,178.28Z"/><path class="cls-93" d="M1655.33,188.24l-1.47-2.91s7.52-12.3,1.36-14.27-4.43,1.54-3.73,3.22-.43,7.15-1.5,8.82.8,7.24.8,7.24Z"/><path class="cls-89" d="M1708.6,305c3.89-2.64,1.22-7.83,5.62-12,4-3.83,8.43-1.55,15.63-3.61,8.66-2.46,15.37-9.49,18.45-15.63,2.19-4.38,2-7.25,0-29.67-1.93-21.36-2.47-26.58-5.21-27.27-5-1.25-9.47,14.44-19.25,14.44-5.52,0-6.27-5-13.23-7.62-11.81-4.44-20.25,6-32.88,5.61a25,25,0,0,1-11.61-3.45c18.2,17.56,47.5,21.39,71.26,13.44-.32,21.7.53,35.09-7.64,40-5.77,3.43-10.77-.49-19.27,4.84-7.06,4.42-6.53,9-12.43,11-8.91,3.1-17.27-4.73-19.67-2-1.61,1.82.43,7.2,3.88,11.62A22,22,0,0,1,1689,303C1698.28,302.23,1704,308.08,1708.6,305Z"/><path class="cls-94" d="M843.52,840.5c0,13.14-6.64,23.79-14.83,23.79s-14.82-10.65-14.82-23.79,6.63-23.79,14.82-23.79S843.52,827.36,843.52,840.5Z"/><path class="cls-95" d="M825.76,816.71a10.6,10.6,0,0,0-6.73,2.61h0l0,0a16.28,16.28,0,0,0-2.7,2.84l-8.14,8.55L810.94,863l11.75.82a9.43,9.43,0,0,0,3.07.52c8.19,0,14.83-10.65,14.83-23.79S834,816.71,825.76,816.71Z"/><path class="cls-33" d="M761.35,1176h-.16a3.77,3.77,0,0,1-3.61-3.92l11.94-291.75h-4.24l-92.85,250.9a3.77,3.77,0,1,1-7.07-2.62L760,872.8h17.34l-12.26,299.59A3.77,3.77,0,0,1,761.35,1176Z"/><path class="cls-33" d="M857.75,1113.91a3.76,3.76,0,0,1-3.57-2.55L774,875.46a3.76,3.76,0,1,1,7.13-2.42l80.18,235.89a3.77,3.77,0,0,1-2.35,4.78A3.65,3.65,0,0,1,857.75,1113.91Z"/><path class="cls-96" d="M724.24,828.1l58.52-8.69a11,11,0,0,1,2.29-.07l28,2.27L753.17,855.5Z"/><path class="cls-97" d="M721.17,873.08V831.61a3.56,3.56,0,0,1,4.06-3.53l25.42,3.64-1.07,53.71-24.47-7.1A5.48,5.48,0,0,1,721.17,873.08Z"/><path class="cls-98" d="M726.75,860.52V839.18a1.78,1.78,0,0,1,2-1.76l11.16,1.67a1.18,1.18,0,0,1,1,1.17v24.25a1.19,1.19,0,0,1-1.52,1.15l-10.72-2.51A2.73,2.73,0,0,1,726.75,860.52Z"/><path class="cls-99" d="M813,821.61l-62.66,9.73a2.85,2.85,0,0,0-2.41,2.82v48.72a2.85,2.85,0,0,0,3.4,2.79L814,873.36a2.84,2.84,0,0,0,2.29-2.79V824.42A2.84,2.84,0,0,0,813,821.61Z"/><path class="cls-100" d="M762.08,852.85v17.57a3.83,3.83,0,0,0,4.5,3.77l35.89-6.4a3.82,3.82,0,0,0,3.15-3.74l.11-17.26a3.83,3.83,0,0,0-4.46-3.79l-36,6.08A3.82,3.82,0,0,0,762.08,852.85Z"/><path class="cls-101" d="M785.42,836.35l-40.91,6.19-.45-20,38.17-5.75a9.92,9.92,0,0,1,3.19,19.58Z"/><path class="cls-102" d="M760.11,832.39c.18,8.31-6,16.22-12.34,16.36s-10.35-7.54-10.54-15.85,2.68-16.12,9-16.26S759.92,824.08,760.11,832.39Z"/><path class="cls-103" d="M756.7,832.47c.21,9-4.57,16.41-10.65,16.54s-11.19-7-11.39-16,4.57-16.42,10.66-16.55S756.5,823.46,756.7,832.47Z"/><path class="cls-104" d="M753.5,832.54c.14,6.38-3.24,11.63-7.56,11.73s-7.93-5-8.07-11.39,3.24-11.63,7.55-11.73S753.35,826.15,753.5,832.54Z"/><path class="cls-80" d="M744.94,833.15c-4.89,6.52,4.56,8.81,1,8.89s-6.48-4.09-6.6-9.31,2.65-9.51,6.18-9.59S750.68,825.53,744.94,833.15Z"/><path class="cls-105" d="M751.59,885.73l7.38-8.06a27.63,27.63,0,0,1,6.57-5.66c5.94-3.64,14.12-5.43,15.34-3.35,1.39,2.36-6.37,9.35-9,11.66l-11,8Z"/><path class="cls-106" d="M593.81,831c-2,.76-32.6,12.92-38.88,44.85-.51,2.58-5.43,30,13.18,49.39,20.86,21.74,61,21.2,77,3a32.57,32.57,0,0,0,6.78-12.88l-4.2-11.16c-5.13-6.19-12.11-7.65-15.83-8.57-9.19-2.27-16.13,1.83-21.39-2.61-2.92-2.45-3.49-6-4-9.13-1.76-10.74,4.3-17.34,4.74-24,.33-4.94,2.06-15.79-4.4-22.86C602.68,832.57,597,831.35,593.81,831Z"/><path class="cls-107" d="M581.89,1186.8c-.35-2-6.7-3.74-9.85-1.11-1.56,1.31-2.63,4-1.73,5.16.33.43-1,1.2.27,1.21C574.86,1192.11,582.25,1188.76,581.89,1186.8Z"/><path class="cls-108" d="M575.24,1187.52l-6.53-.92c3-3.65,2.46-15.24,2.46-15.24l7,1.55s-.79,3.18-2.14,7.88A30.43,30.43,0,0,0,575.24,1187.52Z"/><path class="cls-109" d="M575.82,1186.71s-7.86-1.81-8.71-.25-1.51,5.74,3.47,5.6S576.26,1188,575.82,1186.71Z"/><path class="cls-110" d="M671.47,1194.17c-.63-1.89-7.16-2.76-9.91.28-1.36,1.51-2,4.29-1,5.35.39.38-.84,1.33.44,1.16C665.25,1200.41,672.09,1196.06,671.47,1194.17Z"/><path class="cls-111" d="M665,1195.81h-6.59c2.48-4,.31-15.43.31-15.43l7.09.56s-.34,3.27-1,8.1A30.9,30.9,0,0,0,665,1195.81Z"/><path class="cls-112" d="M682.07,946.48a305,305,0,0,1,10.22,46.79c8,58.26-9,60.11-5.83,124.67,1,20.61-17.85,68.12-19.52,69.17a19.72,19.72,0,0,1-2.61.1,26.24,26.24,0,0,1-6.64-1.1c-3-.52-13.76-29.71-11.27-47.06,1.77-12.28,1.26-25.46.23-51.82-.16-4.27-11.09-83.1-11.09-83.1-3.33,29.18-7.15,54-10.46,73.19-10.65,61.76-45.27,99.14-47.08,99.74-.36.14-3.61,1.32-6.26-.43a4.38,4.38,0,0,1-1.59-1.79c-.92-.72.28-61.65,10.84-107.51,15.33-66.56,8.65-82.13,13.51-111.86C598.72,929.74,682.07,946.48,682.07,946.48Z"/><path class="cls-113" d="M620.16,825.76c10.17-.3,33.56-3.89,46.45,7.7.22.2-2.42,1.62-1.12,3.14a83.59,83.59,0,0,1,9.1,13,87.43,87.43,0,0,1,7.64,18.91,162.35,162.35,0,0,1,6,33c2.35,31,0,45.26-2.1,55-9.2,4.72-32.91,13.18-61.16,9a95.23,95.23,0,0,1-30.49-10c7.33-22.19,1.58-34.07-1.14-45-3.87-15.61-3.93-14.43-7.11-26.83-5.26-20.46-6.12-41.37-2.51-45.65C593.5,826.45,611,826,620.16,825.76Z"/><path class="cls-114" d="M665.44,1194.94s-8-.7-8.66,1-.69,5.89,4.23,5S666.07,1196.18,665.44,1194.94Z"/><path class="cls-115" d="M648.8,814.09c3.15-5.32,1.74-11.41,1.43-12.73-1.33-5.51-1.82-6.34-2.84-7.51l-1.45-1.53-.18-.13a20.78,20.78,0,0,0-5.57-1.85c-2.59-.13-7.86,9.15-10.88,23.45l-.72,1.55c-1.5,3.24-2.78,6.44-3.88,9.55-17.5,1.48-19.92,3.53-20,4.71-.17,2.5,9.8,5.38,17.3,6.48,16.34,2.39,33.15-1.92,33.07-5,0-1.32-3.28-3.05-17.14-4.87.32-2.29.65-4.58,1-6.88C640,819.11,646.47,818,648.8,814.09Z"/><path class="cls-116" d="M652.08,789.67c-1.17,4.37-4.48,8.48-5.73,9a7.79,7.79,0,0,0-2,1.31,2.58,2.58,0,0,0-.39.45c-1.69,2.5,1.83,6.91.65,7.92-.85.73-3.51-1.26-4.07-.58s1.55,2.8.94,3.57c-.46.58-1.82-.43-3.05.32-.62.38-.58.81-1.5,2.21a14.26,14.26,0,0,1-1.62,2.08c-2.19,2.16-6.72,2-7.27.71-.15-.35.11-.53.13-1.56a7.86,7.86,0,0,0-.33-2.14c-.49-1.71-2.34-3.33-4.08-5.45-3.23-3.94-3.66-6.68-3.77-7.59,0-.33-.05-.57-.06-.75-.17-3.49,1.08-8.23,3.31-10.75,3.72-4.23,8.58-.45,14.34-4.09,6.66-4.19,5.61-12.63,8.64-12.72C649.52,771.45,654.27,781.6,652.08,789.67Z"/><path class="cls-117" d="M643.28,806.85c-.68-1.76-2.93-.88-3.45,1s.8,4.38,2.69,4.48S644.19,809.21,643.28,806.85Z"/><path class="cls-118" d="M597.76,941.44h0a.31.31,0,0,1-.27-.34c1.2-10.82-1-18.69-3-25.62-.48-1.71-.94-3.33-1.35-5-2.19-8.86-3.15-12.28-4.17-15.9-.66-2.36-1.35-4.8-2.41-8.87a.31.31,0,0,1,.22-.38.32.32,0,0,1,.38.22c1.06,4.07,1.74,6.51,2.4,8.86,1,3.63,2,7,4.18,15.92.4,1.61.86,3.22,1.35,4.93,2,7,4.25,14.91,3,25.86A.3.3,0,0,1,597.76,941.44Z"/><path class="cls-116" d="M643.26,803.43l1.62,3.9s1.62,4.67,3.76,2.92c1.75-1.43,2.07-1.31,2.13-1.21s0,0,0,0,0-.93.06-1.75a15,15,0,0,1,.91,5.13c0,2.15,0,4.46-1.69,6.23a6.41,6.41,0,0,1-4.41,1.88s-1,0-4.68-1.75c0,0,5.07-2,5.33-2.66.7-1.94-1.77-3.75-2.73-8.38A16.71,16.71,0,0,1,643.26,803.43Z"/><path class="cls-119" d="M755.67,880a20.42,20.42,0,0,1,6.68,8.31,61.64,61.64,0,0,1-21.54,26.83c-20.83,14.25-51.37,14.73-72.64-1.52-25.41-19.41-29.65-56.64-19-72.59,1.23-1.83,5.27-7.86,11.54-8.56,4-.43,9.35,1.2,17.87,11.17,17.74,20.78,11.47,33.75,22,39.83C716.28,892.56,739.64,868.76,755.67,880Z"/><path class="cls-118" d="M684.14,922.4h-.07c-.25,0-25.19-5.78-36.4-36.71a.3.3,0,0,1,.18-.39.31.31,0,0,1,.4.18c11.09,30.59,35.7,36.27,36,36.32a.32.32,0,0,1,.24.37A.31.31,0,0,1,684.14,922.4Z"/></g></g></g></svg>